<svg width="72" height="67" viewBox="0 0 72 67" fill="none" xmlns="http://www.w3.org/2000/svg">
<path d="M40 0C32.0435 0 24.4129 3.1607 18.7868 8.78679C13.1607 14.4129 10 22.0435 10 30H0L12.9667 42.9666L13.2 43.4333L26.6667 30H16.6667C16.6667 17.1 27.1 6.66666 40 6.66666C52.9 6.66666 63.3333 17.1 63.3333 30C63.3333 42.9 52.9 53.3333 40 53.3333C33.5667 53.3333 27.7333 50.7 23.5333 46.4666L18.8 51.2C21.578 53.9934 24.8816 56.2091 28.5202 57.7195C32.1588 59.2298 36.0604 60.0049 40 60C47.9565 60 55.5871 56.8393 61.2132 51.2132C66.8393 45.5871 70 37.9565 70 30C70 22.0435 66.8393 14.4129 61.2132 8.78679C55.5871 3.1607 47.9565 1.18561e-07 40 0ZM36.6666 16.6667V33.3333L50.8333 41.7333L53.4 37.4666L41.6666 30.5V16.6667H36.6666Z" fill="#68E1FD"/>
<mask id="path-2-outside-1_434_1952" maskUnits="userSpaceOnUse" x="30" y="38" width="42" height="29" fill="black">
<rect fill="white" x="30" y="38" width="42" height="29"/>
<path d="M58.2095 52.1244C61.1992 52.1244 63.7712 49.4549 63.7712 45.9786C63.7712 42.5443 61.1856 40 58.2095 40C55.2341 40 52.6479 42.5998 52.6479 46.0063C52.6479 49.4549 55.2199 52.1244 58.2095 52.1244ZM42.2055 52.4445C44.7917 52.4445 47.0449 50.108 47.0449 47.0906C47.0449 44.1017 44.7775 41.8904 42.2055 41.8904C39.6199 41.8904 37.339 44.1572 37.3532 47.1191C37.3532 50.108 39.6057 52.4445 42.2062 52.4445M34.4475 65H45.0144C43.5687 62.9004 45.3346 58.6735 48.3242 56.3655C46.781 55.3367 44.7917 54.5718 42.192 54.5718C35.921 54.5712 32 59.2008 32 63.0527C32 64.3049 32.6951 65 34.4475 65ZM49.464 65H66.9415C69.1244 65 69.9034 64.3739 69.9034 63.1502C69.9034 59.5629 65.4118 54.6131 58.196 54.6131C50.9937 54.6131 46.5021 59.5629 46.5021 63.1509C46.5021 64.3739 47.2805 65 49.464 65Z"/>
</mask>
<path d="M58.2095 52.1244C61.1992 52.1244 63.7712 49.4549 63.7712 45.9786C63.7712 42.5443 61.1856 40 58.2095 40C55.2341 40 52.6479 42.5998 52.6479 46.0063C52.6479 49.4549 55.2199 52.1244 58.2095 52.1244ZM42.2055 52.4445C44.7917 52.4445 47.0449 50.108 47.0449 47.0906C47.0449 44.1017 44.7775 41.8904 42.2055 41.8904C39.6199 41.8904 37.339 44.1572 37.3532 47.1191C37.3532 50.108 39.6057 52.4445 42.2062 52.4445M34.4475 65H45.0144C43.5687 62.9004 45.3346 58.6735 48.3242 56.3655C46.781 55.3367 44.7917 54.5718 42.192 54.5718C35.921 54.5712 32 59.2008 32 63.0527C32 64.3049 32.6951 65 34.4475 65ZM49.464 65H66.9415C69.1244 65 69.9034 64.3739 69.9034 63.1502C69.9034 59.5629 65.4118 54.6131 58.196 54.6131C50.9937 54.6131 46.5021 59.5629 46.5021 63.1509C46.5021 64.3739 47.2805 65 49.464 65Z" fill="#68E1FD"/>
<path d="M37.3532 47.1191H39.3532L39.3532 47.1095L37.3532 47.1191ZM45.0144 65V67H48.8199L46.6617 63.8657L45.0144 65ZM48.3242 56.3655L49.5464 57.9486L51.7512 56.2464L49.4336 54.7014L48.3242 56.3655ZM42.192 54.5718L42.1917 56.5718H42.192V54.5718ZM58.2095 54.1244C62.4522 54.1244 65.7712 50.4049 65.7712 45.9786H61.7712C61.7712 48.5049 59.9461 50.1244 58.2095 50.1244V54.1244ZM65.7712 45.9786C65.7712 41.5256 62.3742 38 58.2095 38V42C59.997 42 61.7712 43.5629 61.7712 45.9786H65.7712ZM58.2095 38C54.0278 38 50.6479 41.5997 50.6479 46.0063H54.6479C54.6479 43.5998 56.4404 42 58.2095 42V38ZM50.6479 46.0063C50.6479 50.411 53.9725 54.1244 58.2095 54.1244V50.1244C56.4673 50.1244 54.6479 48.4987 54.6479 46.0063H50.6479ZM42.2055 54.4445C46.0456 54.4445 49.0449 51.0572 49.0449 47.0906H45.0449C45.0449 49.1589 43.5379 50.4445 42.2055 50.4445V54.4445ZM49.0449 47.0906C49.0449 43.077 45.9603 39.8904 42.2055 39.8904V43.8904C43.5947 43.8904 45.0449 45.1263 45.0449 47.0906H49.0449ZM42.2055 39.8904C38.4281 39.8904 35.3341 43.1439 35.3532 47.1287L39.3532 47.1095C39.3439 45.1705 40.8118 43.8904 42.2055 43.8904V39.8904ZM35.3532 47.1191C35.3532 51.0679 38.3618 54.4445 42.2062 54.4445V50.4445C40.8496 50.4445 39.3532 49.1481 39.3532 47.1191H35.3532ZM34.4475 67H45.0144V63H34.4475V67ZM46.6617 63.8657C46.5062 63.6399 46.3207 62.8779 46.8664 61.4951C47.3713 60.2158 48.3428 58.8778 49.5464 57.9486L47.102 54.7824C45.316 56.1612 43.9097 58.0907 43.1457 60.0267C42.4225 61.8593 42.0769 64.2605 43.3672 66.1343L46.6617 63.8657ZM49.4336 54.7014C47.5882 53.4711 45.2172 52.5718 42.192 52.5718V56.5718C44.3663 56.5718 45.9737 57.2022 47.2148 58.0296L49.4336 54.7014ZM42.1922 52.5718C34.9577 52.571 30 57.9601 30 63.0527H34C34 60.4415 36.8843 56.5713 42.1917 56.5718L42.1922 52.5718ZM30 63.0527C30 64.0497 30.29 65.1947 31.2795 66.0267C32.1941 66.7957 33.3662 67 34.4475 67V63C34.1339 63 33.9467 62.9681 33.8506 62.9419C33.7603 62.9174 33.7857 62.9079 33.8537 62.9651C33.9307 63.0298 33.9813 63.1116 34.0033 63.1689C34.0194 63.2109 34 63.1871 34 63.0527H30ZM49.464 67H66.9415V63H49.464V67ZM66.9415 67C68.1365 67 69.3718 66.8458 70.3448 66.2018C71.5115 65.4297 71.9034 64.2468 71.9034 63.1502H67.9034C67.9034 63.25 67.8869 63.2138 67.9335 63.1133C67.9895 62.9928 68.0772 62.9059 68.1372 62.8662C68.176 62.8405 68.1337 62.8808 67.924 62.9237C67.7157 62.9664 67.4001 63 66.9415 63V67ZM71.9034 63.1502C71.9034 60.5834 70.3581 57.9333 68.0353 55.9994C65.652 54.0151 62.2726 52.6131 58.196 52.6131V56.6131C61.3353 56.6131 63.8096 57.6861 65.476 59.0734C67.2029 60.5113 67.9034 62.1297 67.9034 63.1502H71.9034ZM58.196 52.6131C54.1253 52.6131 50.7491 54.0157 48.3678 56C46.0471 57.9339 44.5021 60.584 44.5021 63.1509H48.5021C48.5021 62.1297 49.2029 60.511 50.9285 59.073C52.5936 57.6855 55.0644 56.6131 58.196 56.6131V52.6131ZM44.5021 63.1509C44.5021 64.2469 44.8938 65.4298 46.0605 66.2019C47.0334 66.8458 48.2687 67 49.464 67V63C49.0052 63 48.6895 62.9664 48.4812 62.9237C48.2714 62.8808 48.2292 62.8405 48.268 62.8662C48.3281 62.906 48.4159 62.993 48.4719 63.1136C48.5186 63.2142 48.5021 63.2506 48.5021 63.1509H44.5021Z" fill="white" mask="url(#path-2-outside-1_434_1952)"/>
</svg>
