<svg width="300" height="300" viewBox="0 0 300 300" fill="none" xmlns="http://www.w3.org/2000/svg">
<path d="M278.34 164.7L138.24 245.76C132.3 249.18 125.04 249.18 119.1 245.76L20.6999 189.24C16.5599 186.84 15.1199 181.5 17.5199 177.36C18.2999 176.04 19.3799 174.9 20.6999 174.18L167.16 89.58L278.22 151.32C281.94 153.36 283.32 158.04 281.22 161.76C280.56 162.96 279.54 163.98 278.34 164.7Z" fill="#FF8E31"/>
<path d="M143.76 77.1C143.04 76.56 142.26 76.08 141.42 75.72C139.02 74.52 138.36 73.2 139.32 70.68C141.24 65.64 134.16 56.16 128.46 58.44C124.86 59.88 121.92 63.96 120.72 67.56C120.18 69.12 120.12 70.8 120.48 72.42C120.84 73.74 122.46 75.12 120.96 76.2C118.38 78.06 114.36 78.78 113.4 82.32C113.1 83.28 113.28 84.36 113.76 85.2C114.54 86.22 115.68 86.88 116.94 87C119.16 87.36 118.44 87.66 117.96 89.4C116.58 94.26 121.44 95.7 125.34 96.24C130.14 96.84 136.08 97.38 140.58 95.04C141.9 94.38 143.22 93.24 143.28 91.62C143.34 90 140.82 88.38 141.48 86.7C141.66 86.28 142.02 85.92 142.38 85.68C143.7 84.6 145.5 83.7 145.98 81.9C146.46 79.8 145.26 78.24 143.76 77.1Z" fill="#7EC971"/>
<path d="M127.08 90.06C124.74 87.84 121.62 87.3 118.5 87.42C118.56 87.48 118.56 87.6 118.56 87.66C118.56 87.72 118.56 87.78 118.56 87.9V87.96C121.5 87.84 124.5 88.32 126.72 90.48C128.4 92.16 129.54 94.32 129.96 96.66H130.5C130.02 94.14 128.82 91.86 127.08 90.06Z" fill="#653200"/>
<path d="M133.2 91.74C132.9 92.22 132.6 92.7 132.3 93.18C132.42 91.38 132.6 89.64 132.78 87.9C133.14 86.64 133.62 85.44 134.22 84.3C135.06 82.62 136.2 81.12 137.58 79.92C139.32 78.54 141.24 77.52 143.34 76.86C143.16 76.8 143.04 76.68 142.86 76.56L142.74 76.5C139.14 77.88 136.2 79.8 134.16 83.28C133.74 84 133.38 84.72 133.08 85.5C133.26 84.36 133.38 83.16 133.62 82.02C134.52 76.62 136.02 71.22 139.44 66.9C139.38 66.66 139.32 66.48 139.26 66.24C135.72 70.56 134.1 75.96 133.2 81.42C132.84 83.58 132.54 85.68 132.3 87.84C132.6 78.06 132.6 68.22 132.12 58.44C131.94 58.38 131.76 58.32 131.58 58.26C132 67.14 132.06 76.02 131.82 84.84C131.7 84.84 131.58 84.96 131.52 85.02C131.34 83.58 131.16 82.2 130.86 80.76C129.66 75.18 127.2 68.22 121.5 65.76L121.44 65.88L121.26 66.24C127.02 68.76 129.36 76.08 130.5 81.78C130.86 83.76 131.1 85.8 131.22 87.84C131.04 89.82 130.98 91.86 130.86 93.84C130.38 90.78 129.54 87.78 128.28 84.96C126.84 81.72 123.96 77.1 120 76.74C119.64 76.98 119.22 77.16 118.8 77.28C123.66 76.56 127.02 83.04 128.4 86.82C129.54 89.94 130.32 93.24 130.68 96.54H130.74C130.68 103.2 131.04 109.8 131.94 116.4C132 116.94 132.9 117 132.84 116.4C131.94 109.8 131.58 103.2 131.64 96.54H132C132 95.88 132.06 95.16 132.12 94.44C132.42 93.84 132.78 93.24 133.14 92.64C134.22 90.84 135.66 89.34 137.4 88.2C138.66 87.54 139.98 87.06 141.42 86.82C141.42 86.58 141.54 86.4 141.66 86.22C140.22 86.46 138.84 86.88 137.58 87.54C135.78 88.62 134.28 90 133.2 91.74Z" fill="#653200"/>
<path d="M131.294 119.16C135.302 119.043 138.466 116.021 138.361 112.411C138.255 108.8 134.921 105.968 130.913 106.085C126.905 106.202 123.741 109.223 123.846 112.834C123.952 116.444 127.286 119.276 131.294 119.16Z" fill="#FCC62D"/>
<path d="M147.3 119.28L95.2199 151.56C93.7199 152.52 93.2399 154.5 94.1999 156C94.4999 156.48 94.8599 156.84 95.3399 157.08L174.42 201.78C176.64 203.04 179.4 203.04 181.62 201.72L233.46 171.24C237.24 168.18 236.94 162.3 233.46 162.06L154.86 119.1C152.46 117.84 149.58 117.9 147.3 119.28Z" fill="#1CA9B7"/>
<path d="M147.3 117.06L95.2199 149.34C93.7199 150.3 93.2399 152.28 94.1999 153.78C94.4999 154.26 94.8599 154.62 95.3399 154.86L174.42 199.5C176.64 200.76 179.4 200.76 181.62 199.44L233.46 168.96C235.38 167.82 236.04 165.42 234.9 163.5C234.54 162.9 234.06 162.42 233.46 162.06L154.86 116.88C152.46 115.56 149.58 115.62 147.3 117.06Z" fill="white"/>
<path d="M149.4 112.68C149.4 112.68 171.06 42.84 170.94 42.84C170.82 42.84 171.6 39.72 175.44 41.52L258.42 90.36C258.42 90.36 262.44 91.98 261.66 95.76C260.88 99.54 240.54 164.1 240.54 164.1C239.64 165.36 238.08 165.9 236.64 165.42C234.12 164.64 151.38 116.58 151.38 116.58C149.76 115.98 148.92 114.3 149.4 112.68Z" fill="#053855"/>
<path d="M145.08 156.66L168.96 170.1C170.1 170.76 170.52 172.2 169.86 173.34C169.68 173.7 169.32 174 168.96 174.24L154.98 182.46C154.02 183 152.76 183 151.8 182.46L127.38 168.54C126.42 168 126.06 166.8 126.66 165.84C126.84 165.54 127.08 165.3 127.38 165.12L141.96 156.72C142.92 156.12 144.12 156.12 145.08 156.66Z" fill="#68E1FD"/>
<path d="M144.06 124.5L125.04 136.38C123.96 137.04 123.66 138.48 124.32 139.56C124.5 139.86 124.8 140.16 125.1 140.34L193.44 179.34C195.54 180.54 198.06 180.54 200.16 179.34C204.54 176.76 212.1 172.14 216.78 169.32C218.1 168.54 218.58 166.8 217.74 165.48C217.5 165.06 217.14 164.7 216.72 164.46C202.92 156.42 157.8 130.2 147.9 124.44C146.76 123.72 145.26 123.72 144.06 124.5Z" fill="#68E1FD"/>
<path d="M115.8 190.8L114.84 190.08L115.68 178.62L120.72 178.8C120.72 178.8 120.48 183.66 121.56 184.86C122.64 186.06 125.64 185.46 125.94 185.58C126.24 185.7 128.22 185.28 129.06 186.24C129.9 187.2 125.76 189.54 123.66 189.9C122.22 190.08 120.78 190.02 119.34 189.78C119.34 189.78 119.1 186.84 118.38 187.08C117.66 187.32 117.36 190.38 117.36 190.38L115.8 190.8Z" fill="#053855"/>
<path d="M113.76 154.8C113.34 166.8 112.92 182.4 112.92 182.4C112.92 182.4 115.62 186.12 123.06 184.5C123.84 184.32 125.64 165.24 126.48 155.34C122.34 154.2 117.96 154.02 113.76 154.8Z" fill="#7EC971"/>
<path d="M128.94 200.64L127.98 199.92L128.82 188.46L133.86 188.64C133.86 188.64 133.62 193.5 134.7 194.7C135.78 195.9 138.78 195.3 139.08 195.42C139.38 195.54 141.36 195.12 142.2 196.08C143.04 197.04 138.9 199.38 136.8 199.74C135.36 199.92 133.92 199.86 132.48 199.62C132.48 199.62 132.24 196.68 131.52 196.92C130.8 197.16 130.5 200.22 130.5 200.22L128.94 200.64Z" fill="#053855"/>
<path d="M131.1 156.96C127.8 155.46 124.2 154.56 120.6 154.32C121.2 158.82 121.8 161.88 121.86 162.12C122.1 162.66 126.72 191.16 126.72 191.16C132.12 193.32 138.6 191.52 138.6 191.52C138.6 191.52 136.38 169.32 136.2 165.6C136.2 165.18 136.2 164.82 136.14 164.4C135.96 161.16 134.04 158.28 131.1 156.96Z" fill="#7EC971"/>
<path d="M97.6802 163.56C97.6802 163.56 106.92 155.22 113.76 154.8C120.6 154.38 130.38 161.46 129.66 165.6C128.94 169.74 115.74 178.62 115.74 178.62" fill="#7EC971"/>
<path d="M116.52 148.68L109.2 143.46C108.6 143.04 108.36 142.2 108.66 141.54L113.88 129.96C114.24 129.18 115.14 128.82 115.92 129.18L116.1 129.3L124.26 134.4C124.98 134.82 125.22 135.72 124.8 136.44L118.8 148.08C118.44 148.86 117.48 149.16 116.7 148.8L116.52 148.68Z" fill="#053855"/>
<path d="M115.86 148.26L108.48 143.04C107.88 142.62 107.64 141.78 107.94 141.12L113.16 129.6C113.52 128.82 114.42 128.46 115.2 128.82C115.26 128.82 115.32 128.88 115.38 128.94L123.6 134.04C124.32 134.46 124.56 135.36 124.14 136.08L118.08 147.72C117.66 148.5 116.76 148.74 115.98 148.38L115.86 148.26Z" fill="#68E1FD"/>
<path d="M117.06 147.54L108.84 141.72L114.24 129.66L123.42 135.36L117.06 147.54Z" fill="white"/>
<path d="M113.28 134.76C110.58 136.26 106.26 137.94 103.38 139.92C102.9 140.22 102.24 141.36 102.66 141.18C102.48 141.42 104.34 142.14 104.16 142.38C104.1 142.44 105.36 141.78 105.42 141.78C106.5 142.38 107.76 142.5 108.96 142.2L109.44 141.84L109.56 141.78C109.56 141.72 109.62 141.72 109.62 141.72L109.68 141.66C109.68 141.6 109.74 141.54 109.8 141.48C110.46 141 111.84 140.7 111.96 139.86C111.96 139.62 111.84 139.44 111.78 139.2C111.72 139.08 111.72 138.96 111.84 138.9C111.96 138.42 111.84 137.88 111.54 137.46L111.72 137.28C112.5 136.74 113.22 136.14 113.88 135.48C113.94 135.42 114 135.3 114 135.24V135.12C113.94 134.82 113.7 134.64 113.4 134.7C113.4 134.7 113.34 134.7 113.28 134.76Z" fill="#E85454"/>
<path d="M111.9 137.7C111.66 137.16 111.36 137.16 110.94 137.34C109.98 137.76 109.08 138.3 108.24 138.9C108.12 139.02 108.24 139.2 108.36 139.14C108.9 138.78 111.18 137.1 111.66 137.82C112.14 138.54 110.58 139.08 110.16 139.32L108.48 140.22C108.36 140.28 108.48 140.52 108.6 140.46L109.68 139.92V139.98C109.74 140.1 109.86 140.22 109.98 140.28C109.8 140.58 109.74 140.94 109.86 141.24L109.92 141.3C108.96 142.26 107.52 142.5 106.32 141.84C106.2 141.72 106.02 141.9 106.14 142.02C107.22 142.86 109.44 142.62 110.22 141.42C110.4 141.42 110.58 141.36 110.7 141.24C111.18 141.06 111.66 140.76 111.96 140.4C112.14 140.04 112.14 139.62 111.96 139.32V139.26C112.2 139.02 112.2 138.6 111.96 138.3C112.02 138.12 111.96 137.94 111.9 137.7ZM111.78 140.16C111.6 140.4 111.36 140.64 111.06 140.76C110.88 140.88 110.46 141.18 110.28 141.12C109.92 141.06 110.16 140.58 110.28 140.4C110.46 140.34 110.64 140.22 110.82 140.1L111.48 139.68L111.72 139.5C111.78 139.68 111.84 139.98 111.78 140.16ZM110.94 139.68C110.58 139.92 110.28 140.22 109.92 139.8C110.46 139.56 111 139.26 111.48 138.96C111.66 138.9 111.78 138.78 111.84 138.6C112.08 139.08 111.18 139.5 110.94 139.68Z" fill="#653200"/>
<path d="M105.06 137.88C105.06 137.88 106.86 138.3 107.04 142.14L105.66 145.56L98.1602 141.66C98.1602 141.72 99.9602 139.44 105.06 137.88Z" fill="#1CA9B7"/>
<path d="M122.94 139.68C122.4 140.94 121.8 142.02 121.38 143.28C121.08 142.5 120.72 141.72 120.3 140.94L120.24 140.88C120.06 140.58 119.64 140.46 119.34 140.64C119.16 140.76 119.04 141 119.04 141.24C119.16 142.02 119.46 142.74 119.94 143.4C119.88 143.46 119.82 143.46 119.76 143.52C118.68 144.72 118.92 146.58 119.04 148.02C119.04 148.32 119.34 148.56 119.64 148.56C119.76 148.56 119.82 148.56 119.88 148.5C120 148.5 120.06 148.5 120.18 148.44C121.14 147.78 121.86 146.76 122.16 145.62C122.76 143.76 123.54 141.72 122.94 139.68Z" fill="#E85454"/>
<path d="M94.8599 139.62L97.5599 138.78C98.2199 138.9 104.1 141.3 106.56 145.44C106.86 146.7 107.04 148.02 107.16 149.34C107.4 151.08 107.58 152.82 107.64 154.56C107.76 156.48 107.7 158.4 107.58 160.26C107.52 161.1 107.46 161.46 107.28 162.3C106.98 162.6 106.62 162.78 106.2 162.96C98.0999 165.78 92.0399 161.22 91.8599 160.56C91.6799 159.9 91.1999 150.48 91.0199 144.9C90.8999 142.5 92.5199 140.28 94.8599 139.62Z" fill="#1CA9B7"/>
<path d="M102.06 129.9C102.06 129.9 103.86 139.08 100.5 140.1C97.1402 141.12 93.1202 137.28 92.8202 135.36C92.5202 133.44 97.2602 126.84 102.06 129.9Z" fill="#E85454"/>
<path d="M100.74 133.62C100.86 133.5 102.78 132.96 103.2 131.28C103.62 129.6 102.12 127.5 98.76 127.2C95.4 126.9 89.7 128.76 90.54 137.7C91.38 146.64 100.38 142.8 100.98 139.92C101.28 137.82 101.16 135.66 100.74 133.62Z" fill="#653200"/>
<path d="M100.74 133.62C100.74 133.62 101.28 136.68 102.54 138C103.8 139.32 104.76 141.72 103.26 143.52C101.76 145.32 103.26 146.34 105.42 148.02C107.58 149.7 106.26 156.84 98.5201 155.1C90.7801 153.36 87.1201 148.68 87.1201 148.68C87.1201 148.68 89.1001 134.76 91.2001 131.52" fill="#653200"/>
<path d="M106.56 145.62C106.56 145.62 108.3 151.5 110.04 151.68C111.78 151.86 114.42 149.28 116.28 145.92C118.98 145.62 121.38 147.6 121.68 150.3C121.68 150.42 121.68 150.54 121.68 150.6C121.68 150.6 115.5 163.08 106.56 160.02" fill="#1CA9B7"/>
<path d="M119.01 139.413C119.732 137.56 119.015 135.551 117.41 134.925C115.804 134.3 113.917 135.294 113.195 137.147C112.473 139 113.19 141.009 114.795 141.634C116.401 142.26 118.288 141.265 119.01 139.413Z" fill="#053855"/>
<path d="M114.06 137.34L115.02 137.04L115.38 138.42L118.56 137.28L118.68 138.24L114.84 139.68L114.06 137.34Z" fill="white"/>
<path d="M74.28 190.32C68.76 183.42 66.24 174.6 66.36 165.78C66.42 158.64 69.24 151.8 74.22 146.64C78.78 141.96 85.68 139.68 91.74 142.8C96.78 145.44 99.24 150.48 101.04 155.64C103.14 161.82 103.86 169.74 111.42 171.66C114.36 172.38 117.42 171.9 120.42 171.66C125.7 171.3 131.22 172.98 132.84 178.62C135.78 188.64 122.28 197.22 114.72 200.4C101.28 205.92 85.86 202.56 75.9 192C75.3 191.52 74.82 190.98 74.28 190.32Z" fill="#FCC62D"/>
<path d="M52.6201 71.64L53.2801 109.44C53.3401 110.76 54.4201 111.78 55.7401 111.78C56.1001 111.78 56.4601 111.66 56.7601 111.54L88.9201 95.52C90.0001 94.98 90.6601 93.84 90.6601 92.64L90.0001 54.78C90.0001 53.34 88.8001 52.2 87.4201 52.26C87.0001 52.26 86.6401 52.38 86.2801 52.56L54.4801 68.82C53.2801 69.3 52.6201 70.38 52.6201 71.64Z" fill="#68E1FD"/>
<path d="M85.0203 77.34C78.9003 79.08 81.0003 85.92 76.6203 89.52C71.2803 93.9 69.2403 81.42 62.7003 82.26C54.8403 83.16 53.2803 109.5 53.2803 109.5C54.5403 112.5 56.7003 111.6 56.7003 111.6L90.6003 94.68L90.3603 80.1C88.9803 78.42 87.1803 77.16 85.0203 77.34Z" fill="#1CA9B7"/>
<path d="M172.26 47.94L257.28 97.5L239.64 156.66L153.54 108.6L172.26 47.94Z" fill="#68E1FD"/>
<path d="M186.12 100.26C195 105.3 214.8 116.76 222.36 121.14C224.1 122.16 224.82 124.26 224.16 126.12L224.04 126.54C223.26 128.64 220.92 129.78 218.82 129C218.58 128.94 218.34 128.82 218.16 128.7L181.8 107.7C180 106.68 179.22 104.46 179.94 102.54C180.78 100.32 183.24 99.18 185.46 100.02C185.7 100.08 185.88 100.14 186.12 100.26Z" fill="white"/>
<path d="M191.219 107.825C191.401 106.78 190.835 105.808 189.954 105.654C189.072 105.5 188.21 106.222 188.027 107.267C187.845 108.312 188.411 109.283 189.293 109.437C190.174 109.591 191.036 108.869 191.219 107.825Z" fill="#1CA9B7"/>
<path d="M195.72 110.482C195.903 109.437 195.336 108.465 194.455 108.311C193.574 108.157 192.711 108.879 192.529 109.924C192.346 110.969 192.913 111.94 193.794 112.094C194.675 112.248 195.538 111.526 195.72 110.482Z" fill="#1CA9B7"/>
<path d="M200.208 113.162C200.39 112.118 199.824 111.146 198.942 110.992C198.061 110.838 197.198 111.56 197.016 112.605C196.833 113.649 197.4 114.621 198.281 114.775C199.163 114.929 200.025 114.207 200.208 113.162Z" fill="#1CA9B7"/>
<path d="M204.935 115.908C205.118 114.864 204.551 113.892 203.67 113.738C202.788 113.584 201.926 114.306 201.744 115.351C201.561 116.395 202.128 117.367 203.009 117.521C203.89 117.675 204.753 116.953 204.935 115.908Z" fill="#1CA9B7"/>
<path d="M209.683 118.686C209.865 117.642 209.299 116.67 208.417 116.516C207.536 116.362 206.674 117.084 206.491 118.129C206.309 119.173 206.875 120.145 207.757 120.299C208.638 120.453 209.5 119.731 209.683 118.686Z" fill="#1CA9B7"/>
<path d="M214.377 121.404C214.559 120.359 213.993 119.388 213.111 119.234C212.23 119.08 211.367 119.802 211.185 120.846C211.002 121.891 211.569 122.862 212.45 123.016C213.332 123.17 214.194 122.448 214.377 121.404Z" fill="#1CA9B7"/>
<path d="M216.049 93.4694C216.921 88.475 213.844 83.7651 209.176 82.9496C204.508 82.1341 200.017 85.5217 199.144 90.5162C198.272 95.5106 201.349 100.22 206.017 101.036C210.685 101.852 215.176 98.4638 216.049 93.4694Z" fill="white"/>
<path d="M210.693 91.3714C211.24 89.4945 210.343 87.5818 208.689 87.0994C207.034 86.6169 205.25 87.7473 204.702 89.6242C204.155 91.501 205.052 93.4137 206.706 93.8962C208.36 94.3786 210.145 93.2482 210.693 91.3714Z" fill="#1CA9B7"/>
<path d="M199.44 95.34C199.44 95.34 202.38 92.1 206.34 93.42C209.34 94.32 211.02 97.44 210.3 100.44C210.3 100.44 207.12 102.48 202.86 99.72C202.86 99.72 199.98 97.86 199.44 95.34Z" fill="#1CA9B7"/>
<path d="M178.86 110.1C179.76 109.92 180.66 109.74 181.56 109.44C182.52 109.08 179.04 108.36 179.04 108.36" fill="#1CA9B7"/>
<path d="M170.16 85.5C171.3 84.96 172.5 84.66 173.76 84.66C175.44 84.84 173.52 88.26 173.52 88.26" fill="#1CA9B7"/>
<path d="M174.96 85.08L186.12 91.74C187.2 92.4 187.68 93.72 187.32 94.92L183.18 107.4C182.64 109.02 181.38 110.1 179.88 109.2L167.88 102.78C166.8 102.12 166.32 100.8 166.74 99.66L171 86.58C171.48 85.14 172.98 84.36 174.42 84.84C174.6 84.9 174.78 84.96 174.96 85.08Z" fill="#1CA9B7"/>
<path d="M172.68 85.68L183.84 92.34C184.92 93 185.46 94.32 185.04 95.52L180.9 108C180.36 109.62 179.1 110.7 177.6 109.8L165.6 103.38C164.52 102.72 164.04 101.4 164.46 100.26L168.72 87.18C169.2 85.74 170.7 84.96 172.14 85.44C172.32 85.5 172.5 85.56 172.68 85.68Z" fill="#1CA9B7"/>
<path d="M175.26 86.22C175.26 86.22 177.06 79.02 181.68 80.1C186.3 81.18 182.58 90.48 182.58 90.48C182.58 90.48 182.58 91.38 184.68 91.74C184.68 91.74 189.18 80.94 183.12 78.06C177.06 75.18 173.52 83.64 173.22 85.2C173.58 85.92 174.42 86.34 175.26 86.22Z" fill="white"/>
<path d="M175.461 97.5882C177.068 97.3609 178.168 95.7403 177.918 93.9687C177.667 92.197 176.161 90.945 174.553 91.1723C172.946 91.3996 171.846 93.0202 172.096 94.7919C172.347 96.5635 173.853 97.8155 175.461 97.5882Z" fill="white"/>
<path d="M171.06 101.46L173.76 93.78C173.94 93.18 174.6 92.88 175.2 93.12L175.74 93.3C176.34 93.48 176.64 94.14 176.4 94.74L173.7 102.42C173.52 103.02 172.86 103.32 172.26 103.08L171.72 102.9C171.18 102.66 170.88 102 171.06 101.46Z" fill="white"/>
</svg>
