<svg width="150" height="150" viewBox="0 0 150 150" fill="none" xmlns="http://www.w3.org/2000/svg">
<path d="M122.169 15.393H30.4561V93.756H122.169V15.393Z" fill="#E6E6E6"/>
<path d="M85.1159 30.402H66.5669V48.951H85.1159V30.402Z" fill="#24285B"/>
<g opacity="0.4">
<path d="M77.1539 27.498H73.6079V34.149H77.1539V27.498Z" fill="white"/>
</g>
<path d="M114.72 30.786H96.1709V49.335H114.72V30.786Z" fill="#FFD200"/>
<g opacity="0.42">
<path d="M114.261 60.351H95.7119V78.9H114.261V60.351Z" fill="white"/>
</g>
<g opacity="0.42">
<path d="M85.1159 60.351H66.5669V78.9H85.1159V60.351Z" fill="white"/>
</g>
<path d="M56.319 60.351H37.77V78.9H56.319V60.351Z" fill="white"/>
<g opacity="0.4">
<path d="M106.758 27.882H103.212V34.533H106.758V27.882Z" fill="white"/>
</g>
<path d="M56.778 30.786H38.229V49.335H56.778V30.786Z" fill="#FFD200"/>
<g opacity="0.4">
<path d="M48.8189 27.882H45.2729V34.533H48.8189V27.882Z" fill="white"/>
</g>
<path d="M81.1051 83.427H70.5781V86.127H81.1051V83.427Z" fill="white"/>
<g opacity="0.08">
<path d="M47.2261 62.622L36.7891 62.904L33.3481 93.759H48.2881C49.1281 90.9 51.6151 88.827 54.5821 88.569C66.1891 87.57 93.9542 85.845 88.6171 53.274C88.0172 49.608 86.4121 49.122 86.4121 49.122L72.2041 65.682L58.1821 73.002L47.2231 62.628L47.2261 62.622Z" fill="#000001"/>
</g>
<g opacity="0.4">
<path d="M52.7072 38.226H42.3062V40.062H52.7072V38.226Z" fill="white"/>
</g>
<g opacity="0.4">
<path d="M112.851 45.093H106.242V46.929H112.851V45.093Z" fill="white"/>
</g>
<path d="M82.4488 45.093H75.8398V46.929H82.4488V45.093Z" fill="#FFD200"/>
<g opacity="0.4">
<path d="M52.7072 42.354H42.3062V44.19H52.7072V42.354Z" fill="white"/>
</g>
<path d="M110.25 83.427H99.7231V86.127H110.25V83.427Z" fill="white"/>
<path d="M77.6999 19.518C80.2581 19.518 82.3319 17.4442 82.3319 14.886C82.3319 12.3278 80.2581 10.254 77.6999 10.254C75.1417 10.254 73.0679 12.3278 73.0679 14.886C73.0679 17.4442 75.1417 19.518 77.6999 19.518Z" fill="#A5A5A5"/>
<g opacity="0.03">
<path d="M76.6652 139.746C112.672 139.746 141.861 135.786 141.861 130.902C141.861 126.018 112.672 122.058 76.6652 122.058C40.6585 122.058 11.4692 126.018 11.4692 130.902C11.4692 135.786 40.6585 139.746 76.6652 139.746Z" fill="#000001"/>
</g>
<g opacity="0.58">
<path d="M103.728 124.896C103.728 124.896 99.4709 123.732 98.5439 119.769C98.5439 119.769 105.141 118.434 105.33 125.247L103.728 124.896Z" fill="#92C7CF"/>
</g>
<g opacity="0.73">
<path d="M104.25 124.473C104.25 124.473 101.274 119.769 103.893 115.371C103.893 115.371 108.909 118.557 106.68 124.482L104.25 124.473Z" fill="#92C7CF"/>
</g>
<path d="M105.018 124.476C105.018 124.476 106.59 119.508 111.342 118.569C111.342 118.569 112.233 121.794 108.264 124.491L105.018 124.476Z" fill="#92C7CF"/>
<path d="M101.931 124.365L102.792 130.272L108.228 130.293L109.032 124.395L101.931 124.365Z" fill="#24285B"/>
<path d="M30.2189 47.574L31.9139 52.659L27.8909 55.215L26.4419 46.401L30.2189 47.574Z" fill="#F4A28C"/>
<path d="M25.059 41.487C25.923 39.375 28.737 38.943 30.297 40.608C32.01 42.435 34.074 45.345 31.74 46.926C28.164 49.35 24.885 44.823 24.885 44.823C24.885 44.823 24.405 43.089 25.062 41.487H25.059Z" fill="#F4A28C"/>
<path d="M27.675 44.604C27.675 44.604 26.76 43.839 26.343 44.925C25.929 46.014 27.546 46.539 28.029 45.99C28.512 45.441 27.675 44.604 27.675 44.604Z" fill="#F4A28C"/>
<path d="M24.4679 55.263C24.4679 55.263 10.0649 63.984 8.16893 84.456C7.84193 87.975 10.1129 91.215 13.5479 92.043L30.4319 96.114L24.4679 55.263Z" fill="#92C7CF"/>
<g opacity="0.2">
<path d="M24.4679 55.263C24.4679 55.263 10.0649 63.984 8.16893 84.456C7.84193 87.975 10.1129 91.215 13.5479 92.043L30.4319 96.114L24.4679 55.263Z" fill="white"/>
</g>
<path d="M30.5169 80.1039L8.38477 90.2742L15.0363 104.749L37.1684 94.5788L30.5169 80.1039Z" fill="#FFD200"/>
<path d="M28.1791 43.284C28.1791 43.284 30.0811 48.726 26.7661 48.384C23.4511 48.042 25.2691 45.708 23.6251 43.284C21.9811 40.863 22.8451 39.228 25.3561 37.104C26.5081 36.129 27.2821 35.676 27.7441 35.16C28.6201 34.182 30.2311 34.368 30.7291 35.583C31.5841 37.671 31.5931 40.467 28.1821 43.284H28.1791Z" fill="#24285B"/>
<path d="M21.141 59.547C22.509 56.472 25.185 54.171 28.407 53.202C34.566 51.351 46.26 47.469 49.716 53.229C54.447 61.116 47.166 92.076 47.166 92.076L26.472 93.684C26.472 93.684 15.087 73.149 21.141 59.547Z" fill="#92C7CF"/>
<path d="M47.1658 92.076L44.4418 127.656H40.1368L36.2968 100.014L26.7808 93.684L47.1658 92.076Z" fill="#24285B"/>
<path d="M26.7807 93.684L20.8438 127.656H25.4577L35.4237 99.432L26.7807 93.684Z" fill="#24285B"/>
<g opacity="0.08">
<path d="M30.1951 52.662C30.1951 52.662 20.5141 83.841 48.4681 85.908L47.1631 92.076L26.4691 93.684C26.4691 93.684 19.1761 82.233 19.4851 66.15C19.4851 66.15 19.6621 58.197 25.2601 54.681C25.2601 54.681 27.3961 53.106 30.1951 52.659V52.662Z" fill="#000001"/>
</g>
<path d="M21.6807 127.656L18.8187 129.765C18.3297 130.125 18.5847 130.902 19.1907 130.902H23.9877C24.3357 130.902 24.6177 130.62 24.6177 130.272V127.656H21.6807Z" fill="#92C7CF"/>
<path d="M44.3218 127.656L47.0158 129.765C47.4928 130.137 47.2288 130.902 46.6228 130.902H43.2088C42.2008 130.902 41.3848 130.086 41.3848 129.078V127.656H44.3218Z" fill="#92C7CF"/>
<path d="M86.0218 49.842C86.0218 49.842 88.1128 46.524 85.7278 45.621C83.3428 44.715 83.5468 49.119 83.5468 49.119L86.0218 49.845V49.842Z" fill="#F4A28C"/>
<path d="M86.6517 50.028L83.5467 49.119L69.9358 60.948C67.8958 62.721 65.0638 63.27 62.5108 62.379C59.6728 61.386 56.1238 59.367 53.5918 55.263C48.6958 47.328 40.3857 50.199 40.3857 50.199C40.3857 50.199 34.1248 56.37 46.5328 66.957C53.9398 73.278 61.5238 73.674 66.4348 72.966C67.0348 72.879 67.6378 72.867 68.2438 72.849C68.7838 72.834 69.3478 72.714 69.9238 72.471C70.5568 72.204 71.2018 71.883 71.8528 71.514C76.8838 68.64 82.3137 62.481 86.6487 50.031L86.6517 50.028Z" fill="#92C7CF"/>
<g opacity="0.2">
<path d="M86.6517 50.028L83.5467 49.119L69.9358 60.948C67.8958 62.721 65.0638 63.27 62.5108 62.379C59.6728 61.386 56.1238 59.367 53.5918 55.263C48.6958 47.328 40.3857 50.199 40.3857 50.199C40.3857 50.199 34.1248 56.37 46.5328 66.957C53.9398 73.278 61.5238 73.674 66.4348 72.966C67.0348 72.879 67.6378 72.867 68.2438 72.849C68.7838 72.834 69.3478 72.714 69.9238 72.471C70.5568 72.204 71.2018 71.883 71.8528 71.514C76.8838 68.64 82.3137 62.481 86.6487 50.031L86.6517 50.028Z" fill="white"/>
</g>
<path d="M132.396 118.11H116.781V120.117H132.396V118.11Z" fill="#A5A5A5"/>
<path d="M116.136 100.527L114.168 130.902H116.136L120.318 100.527H116.136Z" fill="#E6E6E6"/>
<path d="M132.366 100.527L134.334 130.902H132.366L128.187 100.527H132.366Z" fill="#E6E6E6"/>
<path d="M134.331 96.642H114.168V101.424H134.331V96.642Z" fill="#A5A5A5"/>
<path d="M130.08 94.986H126.063V94.101H130.08C130.668 94.101 131.148 93.621 131.148 93.033V90.159C131.148 89.571 130.668 89.091 130.08 89.091H126.063V88.206H130.08C131.157 88.206 132.033 89.082 132.033 90.159V93.033C132.033 94.11 131.157 94.986 130.08 94.986Z" fill="#FFD200"/>
<g opacity="0.46">
<path d="M130.08 94.986H126.063V94.101H130.08C130.668 94.101 131.148 93.621 131.148 93.033V90.159C131.148 89.571 130.668 89.091 130.08 89.091H126.063V88.206H130.08C131.157 88.206 132.033 89.082 132.033 90.159V93.033C132.033 94.11 131.157 94.986 130.08 94.986Z" fill="white"/>
</g>
<path d="M128.349 86.193H120.528V96.702H128.349V86.193Z" fill="#FFD200"/>
<g opacity="0.08">
<path d="M124.533 93.894C125.825 93.894 126.873 92.7228 126.873 91.278C126.873 89.8332 125.825 88.662 124.533 88.662C123.241 88.662 122.193 89.8332 122.193 91.278C122.193 92.7228 123.241 93.894 124.533 93.894Z" fill="#000001"/>
</g>
<g opacity="0.03">
<path d="M121.665 86.256C121.665 86.256 120.819 83.439 123.072 83.157C125.325 82.875 128.424 83.439 127.269 80.058C126.114 76.68 124.593 77.412 126.282 73.581C127.971 69.75 132.42 76.566 134.055 72.96C135.687 69.354 137.94 70.596 140.193 72.369C142.446 74.142 142.896 79.662 138.447 80.508C133.998 81.354 133.095 82.317 132.195 84.792C131.295 87.267 126.732 86.253 126.732 86.253H121.662L121.665 86.256Z" fill="#000001"/>
</g>
</svg>
