<svg width="150" height="150" viewBox="0 0 150 150" fill="none" xmlns="http://www.w3.org/2000/svg">
<g opacity="0.03">
<path d="M77.3157 143.274C114.348 143.274 144.369 139.296 144.369 134.388C144.369 129.48 114.348 125.502 77.3157 125.502C40.2833 125.502 10.2627 129.48 10.2627 134.388C10.2627 139.296 40.2833 143.274 77.3157 143.274Z" fill="#000001"/>
</g>
<path opacity="0.3" d="M33.5939 12.057C18.8339 16.86 5.84392 29.499 5.12992 46.923C4.73092 56.616 6.83992 81.462 37.5389 87.918C86.8199 98.283 131.139 94.779 140.445 69.828C148.734 47.607 135.606 18.054 110.988 11.955C93.6419 7.65903 62.4149 2.67903 33.5909 12.057H33.5939Z" fill="#E6E6E6"/>
<path d="M25.8689 122.229L104.565 122.229L104.565 49.932L25.8689 49.932L25.8689 122.229Z" fill="#24285B"/>
<path d="M22.3019 58.311L107.646 58.311C108.627 58.311 109.422 57.5159 109.422 56.535V25.731C109.422 24.7502 108.627 23.955 107.646 23.955L22.3019 23.955C21.321 23.955 20.5259 24.7502 20.5259 25.731V56.535C20.5259 57.5159 21.321 58.311 22.3019 58.311Z" fill="#24285B"/>
<path d="M22.545 95.805L107.889 95.805C108.87 95.805 109.665 95.0099 109.665 94.029V63.225C109.665 62.2442 108.87 61.449 107.889 61.449L22.545 61.449C21.5642 61.449 20.769 62.2442 20.769 63.225V94.029C20.769 95.0099 21.5642 95.805 22.545 95.805Z" fill="#24285B"/>
<path d="M22.3019 133.299H107.646C108.627 133.299 109.422 132.504 109.422 131.523V100.719C109.422 99.7382 108.627 98.943 107.646 98.943L22.3019 98.943C21.321 98.943 20.5259 99.7382 20.5259 100.719V131.523C20.5259 132.504 21.321 133.299 22.3019 133.299Z" fill="#24285B"/>
<path opacity="0.07" d="M22.3019 58.311L107.646 58.311C108.627 58.311 109.422 57.5159 109.422 56.535V25.731C109.422 24.7502 108.627 23.955 107.646 23.955L22.3019 23.955C21.321 23.955 20.5259 24.7502 20.5259 25.731V56.535C20.5259 57.5159 21.321 58.311 22.3019 58.311Z" fill="white"/>
<path opacity="0.07" d="M22.545 95.805L107.889 95.805C108.87 95.805 109.665 95.0099 109.665 94.029V63.225C109.665 62.2442 108.87 61.449 107.889 61.449L22.545 61.449C21.5642 61.449 20.769 62.2442 20.769 63.225V94.029C20.769 95.0099 21.5642 95.805 22.545 95.805Z" fill="white"/>
<path opacity="0.07" d="M22.3019 133.299H107.646C108.627 133.299 109.422 132.504 109.422 131.523V100.719C109.422 99.7382 108.627 98.943 107.646 98.943L22.3019 98.943C21.321 98.943 20.5259 99.7382 20.5259 100.719V131.523C20.5259 132.504 21.321 133.299 22.3019 133.299Z" fill="white"/>
<path d="M97.4788 48.465C98.9816 48.465 100.2 47.2468 100.2 45.744C100.2 44.2412 98.9816 43.023 97.4788 43.023C95.976 43.023 94.7578 44.2412 94.7578 45.744C94.7578 47.2468 95.976 48.465 97.4788 48.465Z" fill="#68E1FD"/>
<path opacity="0.46" d="M89.4661 48.465C90.9689 48.465 92.1871 47.2468 92.1871 45.744C92.1871 44.2412 90.9689 43.023 89.4661 43.023C87.9634 43.023 86.7451 44.2412 86.7451 45.744C86.7451 47.2468 87.9634 48.465 89.4661 48.465Z" fill="white"/>
<path opacity="0.46" d="M81.4529 48.465C82.9557 48.465 84.1739 47.2468 84.1739 45.744C84.1739 44.2412 82.9557 43.023 81.4529 43.023C79.9502 43.023 78.7319 44.2412 78.7319 45.744C78.7319 47.2468 79.9502 48.465 81.4529 48.465Z" fill="white"/>
<path d="M97.4788 86.715C98.9816 86.715 100.2 85.4968 100.2 83.994C100.2 82.4913 98.9816 81.273 97.4788 81.273C95.976 81.273 94.7578 82.4913 94.7578 83.994C94.7578 85.4968 95.976 86.715 97.4788 86.715Z" fill="#68E1FD"/>
<path opacity="0.46" d="M89.4661 86.715C90.9689 86.715 92.1871 85.4968 92.1871 83.994C92.1871 82.4913 90.9689 81.273 89.4661 81.273C87.9634 81.273 86.7451 82.4913 86.7451 83.994C86.7451 85.4968 87.9634 86.715 89.4661 86.715Z" fill="white"/>
<path opacity="0.46" d="M81.4529 86.715C82.9557 86.715 84.1739 85.4968 84.1739 83.994C84.1739 82.4913 82.9557 81.273 81.4529 81.273C79.9502 81.273 78.7319 82.4913 78.7319 83.994C78.7319 85.4968 79.9502 86.715 81.4529 86.715Z" fill="white"/>
<path d="M97.4788 124.965C98.9816 124.965 100.2 123.747 100.2 122.244C100.2 120.741 98.9816 119.523 97.4788 119.523C95.976 119.523 94.7578 120.741 94.7578 122.244C94.7578 123.747 95.976 124.965 97.4788 124.965Z" fill="#68E1FD"/>
<path opacity="0.46" d="M89.4661 124.965C90.9689 124.965 92.1871 123.747 92.1871 122.244C92.1871 120.741 90.9689 119.523 89.4661 119.523C87.9634 119.523 86.7451 120.741 86.7451 122.244C86.7451 123.747 87.9634 124.965 89.4661 124.965Z" fill="white"/>
<path opacity="0.46" d="M81.4529 124.965C82.9557 124.965 84.1739 123.747 84.1739 122.244C84.1739 120.741 82.9557 119.523 81.4529 119.523C79.9502 119.523 78.7319 120.741 78.7319 122.244C78.7319 123.747 79.9502 124.965 81.4529 124.965Z" fill="white"/>
<path d="M30.48 24.054L99.708 24.054V20.142L30.48 20.142V24.054Z" fill="#68E1FD"/>
<path d="M117.492 34.527C117.492 34.527 116.457 37.1611 116.379 39.0961C116.349 39.8791 116.967 40.5511 117.753 40.5721C118.728 40.5961 120.051 40.347 120.777 39.003L122.289 36.8731C122.289 36.8731 123.189 35.505 121.986 33.9511C120.78 32.3971 118.041 32.8921 117.489 34.5301L117.492 34.527Z" fill="#F4A28C"/>
<path d="M134.745 130.761C134.745 130.761 135.498 132.855 137.391 133.014C139.281 133.173 139.779 135.024 138.078 135.507C136.377 135.99 131.991 133.803 131.991 133.803L132.114 131.073L134.748 130.761H134.745Z" fill="#68E1FD"/>
<path d="M108.753 130.761C108.753 130.761 108 132.855 106.107 133.014C104.214 133.173 103.719 135.024 105.42 135.507C107.121 135.99 111.507 133.803 111.507 133.803L111.384 131.073L108.75 130.761H108.753Z" fill="#68E1FD"/>
<path d="M106.329 46.9951C106.329 46.9951 92.826 49.7221 93.951 62.2891C95.076 74.8561 82.8 81.7741 90.318 89.0431C97.833 96.3121 107.847 92.2261 107.847 92.2261L106.329 46.9951Z" fill="#68E1FD"/>
<path opacity="0.39" d="M106.329 46.9951C106.329 46.9951 92.826 49.7221 93.951 62.2891C95.076 74.8561 82.8 81.7741 90.318 89.0431C97.833 96.3121 107.847 92.2261 107.847 92.2261L106.329 46.9951Z" fill="white"/>
<path d="M121.608 37.407L121.491 46.683L116.382 46.254L118.518 39.675L121.608 37.407Z" fill="#F4A28C"/>
<path d="M116.925 36.222L115.86 37.044C115.596 37.248 115.635 37.656 115.929 37.806L116.91 38.31L116.925 36.222Z" fill="#F4A28C"/>
<path opacity="0.31" d="M118.251 40.557C118.251 40.557 118.905 40.62 120.309 39.897C120.309 39.897 119.994 41.721 117.606 42.486L118.251 40.557Z" fill="#CE8172"/>
<path d="M111.846 45.7831C118.278 45.8911 126.954 47.0221 136.329 51.0181C141.342 53.1541 143.538 59.0611 141.096 63.9331L127.773 90.5041L103.077 89.0431C103.077 89.0431 98.5829 74.1121 99.4829 57.2161C99.8309 50.7031 105.324 45.6721 111.846 45.7831Z" fill="#68E1FD"/>
<path d="M107.847 89.325C107.847 89.325 106.83 51.264 108.237 46.26L106.758 46.476C106.758 46.476 105.333 52.971 105.558 61.599C105.75 68.976 106.347 89.94 106.512 89.976C106.677 90.012 107.844 89.322 107.844 89.322L107.847 89.325Z" fill="#24285B"/>
<path d="M121.119 90.111L125.541 47.49L123.423 46.683L118.272 91.599L121.119 90.111Z" fill="#24285B"/>
<path d="M127.773 90.507L135.153 131.142H131.463L122.211 109.08C118.935 101.268 113.16 94.761 105.789 90.585L103.074 89.046L127.77 90.507H127.773Z" fill="#24285B"/>
<path opacity="0.08" d="M129.813 54.549C129.813 54.549 123.99 58.857 125.112 66.549C126.237 74.244 127.395 80.22 120.309 78.432C113.223 76.644 109.38 60.144 109.38 60.144L101.103 60.348L102.534 78.75L107.334 79.08C109.668 79.239 111.606 80.94 112.068 83.235L113.361 89.652L127.776 90.504L129.816 87.474L138.807 77.715L139.932 62.184L129.816 54.546L129.813 54.549Z" fill="#000001"/>
<path d="M118.54 54.2611L102.539 55.3491L104.029 77.2645L120.03 76.1765L118.54 54.2611Z" fill="#FFD200"/>
<path d="M103.077 89.043L106.89 131.139H111.795C111.795 131.139 110.649 99.465 119.499 92.721L103.08 89.043H103.077Z" fill="#24285B"/>
<path d="M129.261 56.931C129.456 51.276 136.536 48.963 140.028 53.415C142.86 57.027 145.47 63.06 145.254 72.966C144.795 94.116 132.381 99.786 113.223 76.644L116.994 73.731C116.994 73.731 124.542 80.133 131.451 80.226C136.593 80.295 128.913 67.02 129.264 56.928L129.261 56.931Z" fill="#68E1FD"/>
<path opacity="0.39" d="M129.261 56.931C129.456 51.276 136.536 48.963 140.028 53.415C142.86 57.027 145.47 63.06 145.254 72.966C144.795 94.116 132.381 99.786 113.223 76.644L116.994 73.731C116.994 73.731 124.542 80.133 131.451 80.226C136.593 80.295 128.913 67.02 129.264 56.928L129.261 56.931Z" fill="white"/>
<path opacity="0.08" d="M103.221 65.364C103.221 65.364 108.714 75.495 119.79 72.636L120.03 76.182L104.028 77.271L103.218 65.367L103.221 65.364Z" fill="#000001"/>
<path d="M116.304 74.265C116.304 74.265 114.051 70.284 111.288 71.337C108.525 72.39 113.226 76.644 113.226 76.644L116.307 74.265H116.304Z" fill="#F4A28C"/>
<path d="M120.57 37.305C120.39 37.794 119.877 38.061 119.367 37.947C118.548 37.764 117.3 37.656 116.301 38.307C114.666 39.372 116.112 41.778 117.993 41.322C119.874 40.866 122.61 37.776 122.61 37.776C122.61 37.776 124.473 35.196 124.056 33.528C123.639 31.857 119.496 29.355 117.603 32.172C116.391 33.975 118.179 34.923 119.625 35.37C120.435 35.622 120.858 36.507 120.567 37.305H120.57Z" fill="#24285B"/>
<path d="M119.655 36.924C119.655 36.924 119.985 35.886 120.747 36.198C121.509 36.51 121.041 38.016 119.934 37.839L119.658 36.924H119.655Z" fill="#F4A28C"/>
<path d="M124.29 35.751L116.382 31.518L117.807 31.293C117.807 31.293 118.617 29.421 120.384 28.746C122.151 28.071 124.962 30.096 125.448 31.929C125.934 33.765 124.287 35.751 124.287 35.751H124.29Z" fill="#FFD200"/>
<path d="M38.4328 66.69H5.09082V90.558H38.4328V66.69Z" fill="#FFD200"/>
<path d="M31.7127 81.414C31.7127 79.893 30.4797 78.66 28.9587 78.66C28.8087 78.66 28.6617 78.675 28.5177 78.699C27.8907 77.535 26.6607 76.743 25.2477 76.743C25.2027 76.743 25.1577 76.749 25.1127 76.749C25.1997 76.407 25.2477 76.05 25.2477 75.681C25.2477 73.245 23.2737 71.274 20.8407 71.274C18.4077 71.274 16.4337 73.248 16.4337 75.681C16.4337 76.05 16.4847 76.407 16.5687 76.749C16.5237 76.749 16.4787 76.743 16.4337 76.743C14.3817 76.743 12.7197 78.405 12.7197 80.457C12.7197 82.509 14.3817 84.171 16.4337 84.171H29.3217V84.144C30.6717 83.97 31.7187 82.815 31.7187 81.414H31.7127Z" fill="white"/>
<path d="M25.2897 82.605L22.0887 78.057L18.8877 82.605H20.4927V86.133H23.6427V82.605H25.2897Z" fill="#24285B"/>
<path d="M38.4328 29.196H5.09082V53.064H38.4328V29.196Z" fill="#FFD200"/>
<path d="M31.7127 43.92C31.7127 42.399 30.4797 41.166 28.9587 41.166C28.8087 41.166 28.6617 41.181 28.5177 41.205C27.8907 40.041 26.6607 39.249 25.2477 39.249C25.2027 39.249 25.1577 39.255 25.1127 39.255C25.1997 38.913 25.2477 38.556 25.2477 38.187C25.2477 35.751 23.2737 33.78 20.8407 33.78C18.4077 33.78 16.4337 35.754 16.4337 38.187C16.4337 38.556 16.4847 38.913 16.5687 39.255C16.5237 39.255 16.4787 39.249 16.4337 39.249C14.3817 39.249 12.7197 40.911 12.7197 42.963C12.7197 45.015 14.3817 46.677 16.4337 46.677H29.3217V46.65C30.6717 46.476 31.7187 45.321 31.7187 43.92H31.7127Z" fill="white"/>
<path d="M18.8877 45.507L22.0887 50.055L25.2897 45.507H23.6847V41.976H20.5377V45.507H18.8877Z" fill="#24285B"/>
</svg>
