<svg width="1076" height="388" viewBox="0 0 1076 388" fill="none" xmlns="http://www.w3.org/2000/svg">
<rect width="1076" height="380" rx="30" fill="#AAD7D9"/>
<g filter="url(#filter0_d_142_193)">
<path d="M153.678 108.407C157.285 98.5528 166.662 92 177.155 92H306.423C323.162 92 335.173 108.131 330.373 124.168L286.619 270.369C283.362 281.252 273.177 288.571 261.824 288.187L124.495 283.541C107.49 282.965 96.0154 265.94 101.864 249.962L153.678 108.407Z" fill="#053855" fill-opacity="0.16" shape-rendering="crispEdges"/>
<path d="M153.678 108.407C157.285 98.5528 166.662 92 177.155 92H306.423C323.162 92 335.173 108.131 330.373 124.168L286.619 270.369C283.362 281.252 273.177 288.571 261.824 288.187L124.495 283.541C107.49 282.965 96.0154 265.94 101.864 249.962L153.678 108.407Z" fill="#053855" fill-opacity="0.16" shape-rendering="crispEdges"/>
</g>
<g filter="url(#filter1_d_142_193)">
<path d="M856.678 199.407C860.285 189.553 869.662 183 880.155 183H1009.42C1026.16 183 1038.17 199.131 1033.37 215.168L989.619 361.369C986.362 372.252 976.177 379.571 964.824 379.187L827.495 374.541C810.49 373.965 799.015 356.94 804.864 340.962L856.678 199.407Z" fill="#053855" fill-opacity="0.16" shape-rendering="crispEdges"/>
<path d="M856.678 199.407C860.285 189.553 869.662 183 880.155 183H1009.42C1026.16 183 1038.17 199.131 1033.37 215.168L989.619 361.369C986.362 372.252 976.177 379.571 964.824 379.187L827.495 374.541C810.49 373.965 799.015 356.94 804.864 340.962L856.678 199.407Z" fill="#053855" fill-opacity="0.16" shape-rendering="crispEdges"/>
</g>
<g filter="url(#filter2_d_142_193)">
<path d="M211.742 213.407C215.349 203.553 224.725 197 235.218 197H328.423C345.162 197 357.173 213.131 352.373 229.168L320.401 336.001C317.144 346.884 306.959 354.203 295.605 353.819L196.495 350.466C179.49 349.891 168.015 332.865 173.864 316.887L211.742 213.407Z" fill="#053855" fill-opacity="0.16" shape-rendering="crispEdges"/>
<path d="M211.742 213.407C215.349 203.553 224.725 197 235.218 197H328.423C345.162 197 357.173 213.131 352.373 229.168L320.401 336.001C317.144 346.884 306.959 354.203 295.605 353.819L196.495 350.466C179.49 349.891 168.015 332.865 173.864 316.887L211.742 213.407Z" fill="#053855" fill-opacity="0.16" shape-rendering="crispEdges"/>
</g>
<g filter="url(#filter3_d_142_193)">
<path d="M775.495 168.407C779.101 158.553 788.478 152 798.971 152H873.423C890.162 152 902.173 168.131 897.373 184.168L871.528 270.53C868.271 281.413 858.085 288.732 846.732 288.348L767.495 285.667C750.49 285.092 739.015 268.066 744.864 252.088L775.495 168.407Z" fill="#053855" fill-opacity="0.16" shape-rendering="crispEdges"/>
<path d="M775.495 168.407C779.101 158.553 788.478 152 798.971 152H873.423C890.162 152 902.173 168.131 897.373 184.168L871.528 270.53C868.271 281.413 858.085 288.732 846.732 288.348L767.495 285.667C750.49 285.092 739.015 268.066 744.864 252.088L775.495 168.407Z" fill="#053855" fill-opacity="0.16" shape-rendering="crispEdges"/>
</g>
<defs>
<filter id="filter0_d_142_193" x="96.3208" y="92" width="239.118" height="204.202" filterUnits="userSpaceOnUse" color-interpolation-filters="sRGB">
<feFlood flood-opacity="0" result="BackgroundImageFix"/>
<feColorMatrix in="SourceAlpha" type="matrix" values="0 0 0 0 0 0 0 0 0 0 0 0 0 0 0 0 0 0 127 0" result="hardAlpha"/>
<feOffset dy="4"/>
<feGaussianBlur stdDeviation="2"/>
<feComposite in2="hardAlpha" operator="out"/>
<feColorMatrix type="matrix" values="0 0 0 0 0 0 0 0 0 0 0 0 0 0 0 0 0 0 0.25 0"/>
<feBlend mode="normal" in2="BackgroundImageFix" result="effect1_dropShadow_142_193"/>
<feBlend mode="normal" in="SourceGraphic" in2="effect1_dropShadow_142_193" result="shape"/>
</filter>
<filter id="filter1_d_142_193" x="799.321" y="183" width="239.118" height="204.202" filterUnits="userSpaceOnUse" color-interpolation-filters="sRGB">
<feFlood flood-opacity="0" result="BackgroundImageFix"/>
<feColorMatrix in="SourceAlpha" type="matrix" values="0 0 0 0 0 0 0 0 0 0 0 0 0 0 0 0 0 0 127 0" result="hardAlpha"/>
<feOffset dy="4"/>
<feGaussianBlur stdDeviation="2"/>
<feComposite in2="hardAlpha" operator="out"/>
<feColorMatrix type="matrix" values="0 0 0 0 0 0 0 0 0 0 0 0 0 0 0 0 0 0 0.25 0"/>
<feBlend mode="normal" in2="BackgroundImageFix" result="effect1_dropShadow_142_193"/>
<feBlend mode="normal" in="SourceGraphic" in2="effect1_dropShadow_142_193" result="shape"/>
</filter>
<filter id="filter2_d_142_193" x="168.321" y="197" width="189.118" height="164.834" filterUnits="userSpaceOnUse" color-interpolation-filters="sRGB">
<feFlood flood-opacity="0" result="BackgroundImageFix"/>
<feColorMatrix in="SourceAlpha" type="matrix" values="0 0 0 0 0 0 0 0 0 0 0 0 0 0 0 0 0 0 127 0" result="hardAlpha"/>
<feOffset dy="4"/>
<feGaussianBlur stdDeviation="2"/>
<feComposite in2="hardAlpha" operator="out"/>
<feColorMatrix type="matrix" values="0 0 0 0 0 0 0 0 0 0 0 0 0 0 0 0 0 0 0.25 0"/>
<feBlend mode="normal" in2="BackgroundImageFix" result="effect1_dropShadow_142_193"/>
<feBlend mode="normal" in="SourceGraphic" in2="effect1_dropShadow_142_193" result="shape"/>
</filter>
<filter id="filter3_d_142_193" x="739.321" y="152" width="163.118" height="144.362" filterUnits="userSpaceOnUse" color-interpolation-filters="sRGB">
<feFlood flood-opacity="0" result="BackgroundImageFix"/>
<feColorMatrix in="SourceAlpha" type="matrix" values="0 0 0 0 0 0 0 0 0 0 0 0 0 0 0 0 0 0 127 0" result="hardAlpha"/>
<feOffset dy="4"/>
<feGaussianBlur stdDeviation="2"/>
<feComposite in2="hardAlpha" operator="out"/>
<feColorMatrix type="matrix" values="0 0 0 0 0 0 0 0 0 0 0 0 0 0 0 0 0 0 0.25 0"/>
<feBlend mode="normal" in2="BackgroundImageFix" result="effect1_dropShadow_142_193"/>
<feBlend mode="normal" in="SourceGraphic" in2="effect1_dropShadow_142_193" result="shape"/>
</filter>
</defs>
</svg>
