<svg width="600" height="600" viewBox="0 0 600 600" fill="none" xmlns="http://www.w3.org/2000/svg">
<path d="M291.84 516.12L34.3199 363.84C26.1599 359.28 19.0799 351.72 27.1199 346.68L285.6 197.76C289.44 195.36 295.32 193.8 299.28 196.08L569.64 352.92C577.8 357.72 579.36 370.92 571.08 375.72L325.8 515.88C315.24 521.88 302.4 522 291.84 516.12Z" fill="#3B84A3"/>
<path d="M127.8 342.48C127.8 353.64 114.96 362.64 99.2402 362.64C83.5202 362.64 70.6802 353.64 70.6802 342.48C70.6802 331.32 83.5202 322.32 99.2402 322.32C114.96 322.32 127.8 331.44 127.8 342.48Z" fill="#92C7CF"/>
<path d="M99.2404 339.36C111.037 339.36 120.6 335.438 120.6 330.6C120.6 325.762 111.037 321.84 99.2404 321.84C87.4436 321.84 77.8804 325.762 77.8804 330.6C77.8804 335.438 87.4436 339.36 99.2404 339.36Z" fill="#7F3500"/>
<path d="M98.4004 315.96C98.4004 312 98.2804 308.04 97.9204 304.08C97.8004 303 97.8004 302.04 97.6804 300.96C97.6804 300.84 97.5604 299.52 97.4404 298.92C97.3204 298.32 97.0804 296.76 97.0804 296.88C96.9604 296.04 96.8404 295.32 96.7204 294.48C94.4404 281.04 89.1604 268.32 81.4804 257.16C78.6004 264.12 77.1604 271.56 77.2804 279C77.2804 281.16 77.4004 283.32 77.6404 285.48C77.6404 286.08 77.6404 286.32 77.7604 286.44C77.8804 286.56 77.7604 286.32 77.8804 286.8C78.1204 287.88 78.2404 288.96 78.4804 289.92C79.3204 294 80.4004 297.96 81.8404 301.8C83.1604 305.4 84.6004 308.76 86.4004 312.12C88.3204 315.84 90.4804 319.44 92.7604 323.04C94.5604 325.8 96.2404 328.32 97.9204 330.72C98.1604 325.92 98.4004 321 98.4004 315.96Z" fill="#6BC630"/>
<path d="M105.72 319.08C107.88 315.72 109.92 312.36 111.72 308.88C112.2 307.92 112.68 307.08 113.16 306.12L114.12 304.32L114.96 302.4C115.32 301.68 115.56 300.96 115.92 300.12C121.2 287.64 123.72 274.08 123.24 260.4C117.12 264.6 111.84 270.12 107.88 276.48C106.68 278.28 105.72 280.2 104.64 282.12L104.16 282.96C104.16 282.96 104.28 282.84 104.04 283.32C103.68 284.28 103.2 285.36 102.84 286.32C101.4 290.16 100.2 294.12 99.24 298.08C98.4 301.8 97.8 305.52 97.56 309.24C97.2 313.44 96.96 317.64 96.96 321.84C96.96 325.08 97.08 328.08 97.2 330.96C100.2 327.24 103.08 323.28 105.72 319.08Z" fill="#6BC630"/>
<path d="M105.6 328.92C107.88 327.84 110.04 326.64 112.2 325.32C112.8 324.96 113.28 324.6 113.88 324.24C114 324.24 114.6 323.76 114.96 323.52L116.04 322.8L117.24 321.84C124.2 316.8 129.84 310.32 134.04 302.76C129.36 303 124.68 304.32 120.48 306.48C119.28 307.08 118.08 307.8 116.88 308.52L116.4 308.76C116.4 308.76 116.52 308.76 116.16 308.88C115.56 309.24 115.08 309.72 114.48 310.08C112.44 311.76 110.52 313.44 108.84 315.36C107.16 317.04 105.72 318.96 104.28 320.88C102.72 323.04 101.28 325.2 99.84 327.48C98.76 329.28 97.8 330.84 96.96 332.52C99.96 331.56 102.84 330.24 105.6 328.92Z" fill="#6BC630"/>
<path d="M440.16 398.76L447.48 394.68C451.92 394.32 456 396.72 458.04 400.68C462.72 409.08 458.64 413.52 458.64 413.52L451.2 418.68" fill="#F2F2F2"/>
<path d="M311.4 486.12L331.68 461.4L439.8 398.76C439.8 398.76 447.96 399 450.72 406.2C452.4 410.16 452.4 414.6 450.72 418.56L342.84 481.2L311.4 486.12Z" fill="#FCBF81"/>
<path d="M451.08 406.2C448.32 399 440.16 398.76 440.16 398.76L332.4 461.16C338.64 466.08 343.56 473.04 343.68 480.96L451.2 418.56C452.76 414.6 452.76 410.16 451.08 406.2Z" fill="#313556"/>
<path d="M311.4 486.12L318.84 477C318.84 477 324.72 479.28 322.92 484.32L311.4 486.12Z" fill="#313556"/>
<path d="M513.72 170.88C513.72 170.88 523.44 176.28 518.28 211.2L459.24 176.16C459.36 176.28 483.48 153.96 513.72 170.88Z" fill="#313556"/>
<path d="M513.72 170.88C513.72 170.88 496.2 162.48 478.8 191.28C465.12 213.84 478.56 327.48 460.2 355.68C447.48 375.24 421.32 385.32 421.32 385.32L231.48 266.88C231.48 266.88 255.36 257.04 264.36 237.48C271.92 221.04 285.12 116.28 289.92 98.16C293.16 85.8 304.68 79.08 317.04 79.44C326.76 79.68 334.92 84.84 343.44 88.92L396.36 114.36L505.8 166.92L513.72 170.88Z" fill="#F2F2F2"/>
<path d="M432.96 220.68C439.455 220.68 444.72 212.46 444.72 202.32C444.72 192.18 439.455 183.96 432.96 183.96C426.465 183.96 421.2 192.18 421.2 202.32C421.2 212.46 426.465 220.68 432.96 220.68Z" fill="#6BC630"/>
<path d="M437.28 197.76C435.12 200.52 432.96 203.16 430.56 205.68L427.68 201.24C426.6 199.56 424.2 201.48 425.28 203.16L428.76 208.56L428.88 208.68C429.24 209.52 430.32 209.88 431.16 209.52C431.28 209.4 431.52 209.28 431.64 209.16C434.52 206.16 437.28 202.92 439.8 199.56C440.28 198.84 440.16 197.88 439.44 197.4C438.72 196.92 437.76 197.04 437.28 197.76Z" fill="#313556"/>
<path d="M430.56 277.2C437.055 277.2 442.32 268.98 442.32 258.84C442.32 248.7 437.055 240.48 430.56 240.48C424.065 240.48 418.8 248.7 418.8 258.84C418.8 268.98 424.065 277.2 430.56 277.2Z" fill="#6BC630"/>
<path d="M435.36 254.52C433.2 257.28 431.04 259.92 428.64 262.44L425.64 258C424.56 256.32 422.16 258.24 423.24 259.92C424.32 261.6 425.64 263.52 426.84 265.32L426.96 265.44C427.32 266.28 428.4 266.64 429.24 266.28C429.36 266.16 429.6 266.04 429.72 265.92C432.6 262.92 435.36 259.68 437.88 256.32C438.36 255.6 438.24 254.64 437.52 254.16C436.8 253.56 435.84 253.8 435.36 254.52Z" fill="#313556"/>
<path d="M421.32 332.64C427.815 332.64 433.08 324.42 433.08 314.28C433.08 304.14 427.815 295.92 421.32 295.92C414.825 295.92 409.56 304.14 409.56 314.28C409.56 324.42 414.825 332.64 421.32 332.64Z" fill="#6BC630"/>
<path d="M426.72 309.72C424.56 312.48 422.4 315.12 420 317.64C419.04 316.2 418.08 314.64 417 313.2C415.92 311.52 413.52 313.44 414.6 315.12L418.08 320.52L418.2 320.64C418.68 321.48 419.64 321.84 420.6 321.36C420.72 321.24 420.96 321.12 421.08 321C423.96 318 426.72 314.76 429.24 311.4C429.72 310.68 429.48 309.72 428.76 309.24C428.16 309 427.32 309.12 426.72 309.72Z" fill="#313556"/>
<path d="M408.24 188.04L327.72 148.44C325.92 147.6 324.24 150.24 326.04 151.08L406.56 190.68C408.48 191.52 410.16 188.88 408.24 188.04Z" fill="#313556"/>
<path d="M411.48 202.2C377.4 185.64 343.2 169.56 308.76 153.84C306.96 153 305.28 155.64 307.08 156.48C341.52 172.2 375.84 188.28 409.8 204.84C411.6 205.68 413.28 203.04 411.48 202.2Z" fill="#313556"/>
<path d="M402.96 245.16L319.32 201.96C317.52 201 315.72 203.76 317.52 204.72L401.16 247.92C402.96 248.88 404.76 246.12 402.96 245.16Z" fill="#313556"/>
<path d="M405.84 260.04C370.44 241.92 334.92 224.28 299.16 207C297.24 206.04 295.56 208.8 297.36 209.76C333.12 227.04 368.76 244.68 404.04 262.8C405.96 263.76 407.76 261 405.84 260.04Z" fill="#313556"/>
<path d="M396.12 296.28L316.92 254.16C315.12 253.2 313.44 255.84 315.24 256.8L394.44 298.92C396.12 299.76 397.92 297.12 396.12 296.28Z" fill="#313556"/>
<path d="M398.76 310.44C365.28 292.8 331.56 275.52 297.6 258.72C295.8 257.88 294.12 260.4 295.92 261.36C329.88 278.16 363.6 295.44 397.08 313.08C398.88 314.04 400.56 311.4 398.76 310.44Z" fill="#313556"/>
<path d="M262.32 366.48C262.32 366.48 271.68 362.28 273.96 362.16C276.24 362.04 279.96 362.76 276.72 366.96C276.72 366.96 266.88 373.44 265.56 373.68C264.24 373.92 261.12 372.84 261 373.2C260.88 373.56 260.64 376.08 260.64 376.08C260.64 376.08 252.36 379.2 252 373.68C252 372.96 253.2 362.76 253.2 362.76" fill="#E55600"/>
<path d="M251.52 342.24C253.2 331.56 256.2 321.36 257.4 310.56C258.12 303.84 258.72 297 259.56 290.28C260.4 283.56 262.92 276.96 264.48 270.24C264.6 269.88 264.48 269.64 264.12 269.4L264.36 268.68C265.2 267.84 266.04 267.12 266.88 266.4L278.4 274.2C278.4 274.2 278.28 281.28 277.92 291.48C276.6 297.48 275.52 302.76 274.08 308.4C274.44 308.76 274.56 309.24 274.44 309.72C270.72 327.6 267.96 345.6 266.28 363.84C266.28 364.44 265.8 365.04 265.2 365.16L264.84 367.92C254.76 371.76 252.6 365.04 252.6 365.04C252.6 365.04 252.12 359.28 251.52 351.24C251.52 348.36 251.52 345.36 251.52 342.24Z" fill="#313556"/>
<path d="M322.8 231.48L323.04 231.6C322.56 231 322.68 230.28 323.28 229.8C323.4 229.68 323.52 229.68 323.64 229.56C324.24 229.32 324.84 229.2 325.32 229.08C325.32 228.96 325.44 228.96 325.44 228.84C325.68 228.72 325.8 228.48 326.04 228.36C326.28 228 326.64 227.88 327 227.88H327.48C327.96 227.76 328.44 227.64 329.04 227.52L330.84 227.16C330.84 227.04 330.96 226.8 331.08 226.68C333.48 223.8 335.76 220.68 337.68 217.44C338.4 216.36 340.44 216.96 339.96 218.4C339.48 219.96 338.88 221.4 338.16 222.84C340.8 220.2 342.12 219.6 344.52 216.72C345.48 215.52 347.28 217.2 346.2 218.4C345.6 219.12 343.2 220.92 342.6 221.64C343.8 220.56 346.68 218.4 347.88 217.32C349.08 216.24 350.76 218.04 349.56 219C347.64 220.68 345.84 222.36 344.04 224.16C345.72 223.08 347.4 222 348.96 220.92C350.28 219.96 351.48 222.12 350.16 223.08C348.36 224.4 346.44 225.6 344.52 226.8C345.72 226.56 346.92 226.2 348.12 225.72C349.56 225.12 350.28 227.52 348.72 228.12C347.52 228.6 346.32 228.96 345.12 229.32L343.32 229.92C342.6 230.16 341.88 230.4 341.28 230.88C338.88 232.32 336.24 233.4 333.6 234.12L333.12 234.48C332.76 234.72 332.4 234.72 332.04 234.48C328.8 235.08 325.44 234.84 322.32 233.76C320.76 233.28 321.36 230.88 322.8 231.48Z" fill="#FCBF81"/>
<path d="M286.92 211.68C287.4 211.2 287.88 210.72 288.36 210.24V210.36C288.36 210.48 288.48 210.6 288.6 210.6C288.72 210.6 288.72 210.6 288.72 210.6L289.68 209.88C289.56 210 289.56 210.12 289.56 210.24C289.44 210.72 289.8 211.2 290.4 211.32C290.88 211.44 291.48 211.2 291.6 210.6C291.6 210.48 291.6 210.48 291.6 210.36L291.96 210.12C291.96 210.24 291.96 210.36 291.96 210.36C291.96 210.84 292.32 211.2 292.8 211.2C292.92 211.2 293.04 211.2 293.16 211.08L293.64 210.84C293.76 210.96 294 211.08 294.24 211.08C295.2 211.08 296.04 211.08 297 210.96C296.88 210.84 296.88 210.6 297 210.36C297 210.36 297.12 210.36 297.12 210.24C298.32 209.88 299.52 209.52 300.72 209.28H300.84L300.96 209.16C301.44 208.44 301.68 207.6 301.68 206.76C302.4 206.28 302.88 205.56 303 204.84C302.88 204.84 302.88 204.72 302.76 204.72C302.64 204.6 302.64 204.36 302.52 204.12C302.4 203.88 302.4 203.52 302.4 203.16C302.4 203.04 302.52 202.92 302.64 202.8C302.4 202.2 302.16 201.6 301.92 201C303.48 199.68 304.56 198 305.16 196.08C305.28 195.6 305.04 195.12 304.56 195C304.32 194.88 303.96 195 303.72 195.12C303.12 195.6 302.64 196.08 302.04 196.56C301.92 196.56 301.8 196.68 301.68 196.68C298.92 199.44 295.92 201.96 292.92 204.36C292.44 204.72 286.32 208.92 286.8 209.28C286.68 210 280.56 216.48 286.92 211.68ZM290.16 210.12C290.16 210.24 290.28 210.36 290.4 210.24C290.52 210.48 290.76 210.6 291 210.6C290.88 210.84 290.52 210.96 290.28 210.84C290.16 210.84 289.92 210.48 290.16 210.12Z" fill="#FCBF81"/>
<path d="M288 210.12C289.08 209.76 290.16 209.16 291.12 208.44C291.84 207.72 293.04 207.84 293.64 208.56C293.88 208.08 294 207.72 294.24 207.24C295.08 204.96 298.68 206.16 297.84 208.44C297.24 210.24 296.16 211.92 294.6 213.12C293.04 214.08 291.24 214.8 289.44 215.16C288.36 215.4 287.4 214.68 287.16 213.6C287.16 213.36 287.16 213 287.16 212.76L287.04 212.64C286.68 211.56 287.16 210.48 288 210.12Z" fill="#FCBF81"/>
<path d="M293.28 213.48C295.2 213 296.76 211.92 297.84 210.36C297.84 210.48 297.96 210.6 298.08 210.6L299.88 210.12C300.24 210 300.6 209.88 300.96 209.76C301.68 209.28 301.56 208.32 301.44 207.6V207.48L301.8 207.24C302.4 206.88 302.76 206.28 303 205.68C303.12 204.96 302.64 204.36 302.64 203.76C303 203.16 302.88 202.44 302.4 201.96C301.8 201.36 301.08 201.72 300.48 202.2C299.16 203.04 297.96 204 296.64 204.96C296.4 205.2 296.76 205.56 297 205.32C297.72 204.84 298.32 204.24 299.04 203.76C299.76 203.28 300.6 202.32 301.2 202.2C303.12 201.84 302.04 204 301.56 204.48C301.32 204.72 300.96 204.96 300.72 205.2C300 205.8 299.4 206.28 298.8 206.88L298.68 207C298.44 209.88 296.28 212.4 293.4 213C292.92 213.12 292.92 213.6 293.28 213.48ZM299.16 207.36C299.16 207.24 299.04 207.24 298.92 207.24C298.92 207.12 298.92 207.12 298.92 207.12C300.12 206.28 301.2 205.32 302.16 204.12C302.28 204.24 302.28 204.48 302.28 204.72C302.4 205.32 302.28 205.92 301.8 206.28C301.32 206.88 299.88 208.2 299.16 207.36ZM297.96 210C298.32 209.28 298.68 208.44 298.8 207.72C299.4 208.44 300.24 208.08 300.96 207.6C300.96 207.96 300.96 208.32 300.96 208.56C300.84 209.04 300.6 209.28 300.12 209.4C299.4 209.64 298.68 209.88 297.96 210Z" fill="#313556"/>
<path d="M265.68 223.32C266.4 222.12 291.12 207.24 292.68 205.32C295.92 209.52 296.4 215.28 293.64 219.84C293.64 219.84 279.72 236.04 272.52 237.48" fill="#8B93FC"/>
<path opacity="0.5" d="M265.68 223.32C266.4 222.12 291.12 207.24 292.68 205.32C295.92 209.52 296.4 215.28 293.64 219.84C293.64 219.84 279.72 236.04 272.52 237.48" fill="#313556"/>
<path d="M282.96 381.96L288.48 384C288.84 385.08 289.68 385.8 290.76 386.04C291 386.28 291.24 386.4 291.48 386.52C293.76 386.64 296.04 386.28 298.08 385.44C300.72 384.6 311.16 380.64 308.28 388.08C306.36 389.4 304.2 390.6 302.28 391.8C301.2 392.52 300.12 393.12 298.92 393.72C298.32 394.08 297.6 394.44 297 394.68C295.56 394.92 291.84 393.72 291.72 394.2C291.6 394.68 291.24 397.44 291.24 397.44C291.24 397.44 281.76 401.04 281.28 394.68C281.52 393.72 282.96 381.96 282.96 381.96Z" fill="#E55600"/>
<path d="M275.04 324.72C273.84 306 273.24 287.04 269.28 268.56C269.16 263.76 266.04 266.88 266.16 264.96C267.84 249.48 290.4 267.84 290.4 267.84C291.36 268.56 291.48 273.36 291.6 274.44C292.68 280.44 293.52 286.32 294.24 292.32C297.96 322.44 296.64 352.56 295.08 382.8C290.28 387.72 287.16 389.16 279.48 386.04C277.92 366.24 276.48 346.44 275.16 326.64L275.04 324.72Z" fill="#313556"/>
<path d="M262.32 253.68C261.48 244.32 261.24 234.96 261.72 225.72C261.84 223.32 262.56 217.32 264.96 215.88C270.36 212.76 277.8 215.52 282.24 218.88C288.24 223.32 291.72 264.6 291.72 274.92C283.44 278.16 272.64 279.48 264.12 275.88C263.4 275.52 263.16 265.44 263.04 264.12C262.92 260.76 262.56 257.28 262.32 253.68Z" fill="#8B93FC"/>
<path d="M279.48 240.24C279.96 246.24 284.16 251.28 290.04 252.84C290.04 253.44 290.16 257.04 290.28 257.52C283.56 255.84 278.52 247.44 277.8 240.24C277.68 239.16 279.36 239.16 279.48 240.24Z" fill="#313556"/>
<path d="M279.72 198.24C280.2 198.48 282.84 210.12 279.84 216.24C276.84 222.36 267 213.6 265.2 208.08C263.4 202.56 269.76 193.56 279.72 198.24Z" fill="#FCBF81"/>
<path d="M279.24 199.68C279.24 199.68 278.52 203.28 275.28 203.76C272.04 204.24 269.28 204.6 269.16 206.04C269.04 207.48 274.8 206.88 274.2 210.12C273.84 212.28 273.12 214.44 272.04 216.48C271.44 218.04 263.04 211.32 261.6 202.44C260.16 193.56 268.2 192.72 268.56 192.72C268.92 192.72 270 190.56 273.96 190.44C277.92 190.32 278.64 192 278.64 192C280.56 191.28 282.84 192 284.04 193.68C286.92 197.04 285.12 201.96 280.8 203.28L279.24 199.68Z" fill="#E55600"/>
<path d="M281.88 223.44C281.88 223.44 303.12 230.64 309.96 229.32C314.88 228.36 324.36 224.76 329.28 222.96C334.8 226.08 336.48 233.04 334.56 238.92C326.52 241.92 302.52 250.32 294 248.04C283.68 245.28 272.16 241.08 272.16 241.08C272.16 241.08 261.24 233.64 281.88 223.44Z" fill="#8B93FC"/>
<path d="M137.04 232.2L148.56 238.08L143.88 230.88L137.04 232.2Z" fill="#E55600"/>
<path d="M181.08 144.12L192.36 149.64L183.12 150.6L181.08 144.12Z" fill="#E55600"/>
<path d="M186.431 201.727C198.525 177.321 196.68 151.763 182.31 144.642C167.939 137.521 146.486 151.533 134.392 175.939C122.298 200.345 124.143 225.903 138.513 233.024C152.884 240.145 174.337 226.133 186.431 201.727Z" fill="#E55600"/>
<path d="M196.57 206.76C208.664 182.354 206.818 156.796 192.448 149.675C178.077 142.554 156.624 156.566 144.53 180.972C132.436 205.378 134.281 230.936 148.652 238.057C163.022 245.178 184.476 231.166 196.57 206.76Z" fill="#313556"/>
<path d="M192.269 204.629C203.097 182.776 202.152 160.243 190.157 154.299C178.162 148.355 159.659 161.251 148.831 183.104C138.002 204.956 138.948 227.489 150.943 233.433C162.938 239.377 181.44 226.481 192.269 204.629Z" fill="#92C7CF"/>
<path d="M178.2 193.08L183.96 180C183.96 180 184.56 177.24 182.52 176.52C180.48 175.8 179.28 178.32 179.28 178.32L175.2 192.6" fill="#313556"/>
<path d="M175.32 193.32L158.16 184.08C157.8 183.96 157.56 183.84 157.2 183.84C156.12 183.84 155.28 184.56 155.04 185.64C154.56 187.56 158.28 188.64 158.28 188.64L174 194.76" fill="#313556"/>
<path d="M180.055 195.839C180.924 193.404 180.059 190.871 178.123 190.181C176.188 189.491 173.916 190.905 173.048 193.34C172.179 195.774 173.044 198.307 174.979 198.997C176.915 199.687 179.187 198.273 180.055 195.839Z" fill="#313556"/>
<path d="M210.96 150.12C208.68 143.64 202.8 139.2 195.96 138.72C193.92 138.6 193.32 141.84 195.36 141.84C201.12 142.08 206.04 145.68 207.96 151.08C208.32 151.92 209.28 152.28 210.12 151.8C210.72 151.68 211.08 150.84 210.96 150.12Z" fill="#313556"/>
<path d="M196.08 127.8C194.04 127.56 193.44 130.8 195.48 130.92C206.64 131.88 216 139.92 218.52 150.84C219 152.88 222 151.68 221.52 149.76C218.64 137.76 208.44 129 196.08 127.8Z" fill="#313556"/>
<path d="M111.84 161.04C104.52 171.6 101.76 184.68 104.52 197.28C105 199.8 108.84 199.44 108.36 196.8C105.84 185.4 108.12 173.4 114.84 163.68C116.28 161.52 113.4 158.88 111.84 161.04Z" fill="#313556"/>
<path d="M116.52 172.32C113.28 178.44 111.96 185.52 112.92 192.48C113.28 195.12 116.88 194.16 116.64 191.4C115.92 185.52 117 179.64 119.88 174.48C120.96 172.08 117.84 169.92 116.52 172.32Z" fill="#313556"/>
</svg>
