<svg width="1440" height="3893" viewBox="0 0 1440 3893" fill="none" xmlns="http://www.w3.org/2000/svg">
<g clip-path="url(#clip0_146_606)">
<path d="M442.835 928.166C446.216 917.921 455.787 911 466.576 911H563.924C580.956 911 593.002 927.66 587.664 943.834L554.665 1043.83C551.284 1054.08 541.712 1061 530.924 1061H433.576C416.544 1061 404.498 1044.34 409.835 1028.17L442.835 928.166Z" fill="url(#paint0_linear_146_606)" fill-opacity="0.15"/>
<path d="M502.835 986.166C506.216 975.921 515.787 969 526.576 969H623.924C640.956 969 653.002 985.66 647.664 1001.83L614.665 1101.83C611.284 1112.08 601.712 1119 590.924 1119H493.576C476.544 1119 464.498 1102.34 469.835 1086.17L502.835 986.166Z" fill="url(#paint1_linear_146_606)" fill-opacity="0.15"/>
<path d="M1099.83 1248.17C1103.22 1237.92 1112.79 1231 1123.58 1231H1220.92C1237.96 1231 1250 1247.66 1244.66 1263.83L1211.66 1363.83C1208.28 1374.08 1198.71 1381 1187.92 1381H1090.58C1073.54 1381 1061.5 1364.34 1066.84 1348.17L1099.83 1248.17Z" fill="url(#paint2_linear_146_606)" fill-opacity="0.15"/>
<path d="M1180.83 1974.17C1184.22 1963.92 1193.79 1957 1204.58 1957H1301.92C1318.96 1957 1331 1973.66 1325.66 1989.83L1292.66 2089.83C1289.28 2100.08 1279.71 2107 1268.92 2107H1171.58C1154.54 2107 1142.5 2090.34 1147.84 2074.17L1180.83 1974.17Z" fill="url(#paint3_linear_146_606)" fill-opacity="0.15"/>
<path d="M1136.83 3190.17C1140.22 3179.92 1149.79 3173 1160.58 3173H1257.92C1274.96 3173 1287 3189.66 1281.66 3205.83L1248.66 3305.83C1245.28 3316.08 1235.71 3323 1224.92 3323H1127.58C1110.54 3323 1098.5 3306.34 1103.84 3290.17L1136.83 3190.17Z" fill="url(#paint4_linear_146_606)" fill-opacity="0.15"/>
<path d="M1075.83 2049.17C1079.22 2038.92 1088.79 2032 1099.58 2032H1196.92C1213.96 2032 1226 2048.66 1220.66 2064.83L1187.66 2164.83C1184.28 2175.08 1174.71 2182 1163.92 2182H1066.58C1049.54 2182 1037.5 2165.34 1042.84 2149.17L1075.83 2049.17Z" fill="url(#paint5_linear_146_606)" fill-opacity="0.15"/>
<path d="M1274.83 3068.17C1278.22 3057.92 1287.79 3051 1298.58 3051H1395.92C1412.96 3051 1425 3067.66 1419.66 3083.83L1386.66 3183.83C1383.28 3194.08 1373.71 3201 1362.92 3201H1265.58C1248.54 3201 1236.5 3184.34 1241.84 3168.17L1274.83 3068.17Z" fill="url(#paint6_linear_146_606)" fill-opacity="0.15"/>
<path d="M120.835 1754.17C124.216 1743.92 133.787 1737 144.576 1737H241.924C258.956 1737 271.002 1753.66 265.664 1769.83L232.665 1869.83C229.284 1880.08 219.712 1887 208.924 1887H111.576C94.5436 1887 82.4977 1870.34 87.8352 1854.17L120.835 1754.17Z" fill="url(#paint7_linear_146_606)" fill-opacity="0.15"/>
<path d="M239.835 1625.17C243.216 1614.92 252.787 1608 263.576 1608H360.924C377.956 1608 390.002 1624.66 384.664 1640.83L351.665 1740.83C348.284 1751.08 338.712 1758 327.924 1758H230.576C213.544 1758 201.498 1741.34 206.835 1725.17L239.835 1625.17Z" fill="url(#paint8_linear_146_606)" fill-opacity="0.15"/>
<path d="M1198.83 1136.17C1202.22 1125.92 1211.79 1119 1222.58 1119H1319.92C1336.96 1119 1349 1135.66 1343.66 1151.83L1310.66 1251.83C1307.28 1262.08 1297.71 1269 1286.92 1269H1189.58C1172.54 1269 1160.5 1252.34 1165.84 1236.17L1198.83 1136.17Z" fill="url(#paint9_linear_146_606)" fill-opacity="0.15"/>
<rect y="-33" width="825" height="656" fill="#92C7CF"/>
<path d="M818 -18H1440L825 623L818 -18Z" fill="#92C7CF"/>
<path d="M171.339 508.175C174.717 497.925 184.291 491 195.083 491H342.438C359.466 491 371.512 507.652 366.182 523.825L339.16 605.825C335.782 616.075 326.208 623 315.416 623H168.061C151.033 623 138.988 606.348 144.317 590.175L171.339 508.175Z" fill="#E4E5DA" fill-opacity="0.3"/>
<path d="M221.335 -15.8344C224.716 -26.0794 234.287 -33 245.076 -33H392.423C409.456 -33 421.502 -16.34 416.164 -0.165627L366.665 149.834C363.284 160.079 353.712 167 342.924 167H195.576C178.544 167 166.498 150.34 171.835 134.166L221.335 -15.8344Z" fill="#E5E1DA" fill-opacity="0.3"/>
<path d="M326.335 364.166C329.716 353.921 339.287 347 350.076 347H497.423C514.456 347 526.502 363.66 521.164 379.834L471.665 529.834C468.284 540.079 458.712 547 447.924 547H300.576C283.544 547 271.498 530.34 276.835 514.166L326.335 364.166Z" fill="#E5E1DA" fill-opacity="0.3"/>
<path d="M776.335 164.166C779.716 153.921 789.287 147 800.076 147H947.423C964.456 147 976.502 163.66 971.164 179.834L921.665 329.834C918.284 340.079 908.712 347 897.924 347H750.576C733.544 347 721.498 330.34 726.835 314.166L776.335 164.166Z" fill="#E5E1DA" fill-opacity="0.3"/>
<path d="M923.335 38.1656C926.716 27.9206 936.287 21 947.076 21H1094.42C1111.46 21 1123.5 37.66 1118.16 53.8344L1068.66 203.834C1065.28 214.079 1055.71 221 1044.92 221H897.576C880.544 221 868.498 204.34 873.835 188.166L923.335 38.1656Z" fill="#E5E1DA" fill-opacity="0.3"/>
</g>
<defs>
<linearGradient id="paint0_linear_146_606" x1="498.75" y1="911" x2="498.75" y2="1061" gradientUnits="userSpaceOnUse">
<stop stop-color="#E4E5DA"/>
<stop offset="0.75" stop-color="#7F7F79"/>
</linearGradient>
<linearGradient id="paint1_linear_146_606" x1="558.75" y1="969" x2="558.75" y2="1119" gradientUnits="userSpaceOnUse">
<stop stop-color="#E4E5DA"/>
<stop offset="0.75" stop-color="#7F7F79"/>
</linearGradient>
<linearGradient id="paint2_linear_146_606" x1="1155.75" y1="1231" x2="1155.75" y2="1381" gradientUnits="userSpaceOnUse">
<stop stop-color="#E4E5DA"/>
<stop offset="0.75" stop-color="#7F7F79"/>
</linearGradient>
<linearGradient id="paint3_linear_146_606" x1="1236.75" y1="1957" x2="1236.75" y2="2107" gradientUnits="userSpaceOnUse">
<stop stop-color="#7F7F79"/>
<stop offset="0.75" stop-color="#E4E5DA"/>
</linearGradient>
<linearGradient id="paint4_linear_146_606" x1="1192.75" y1="3173" x2="1192.75" y2="3323" gradientUnits="userSpaceOnUse">
<stop stop-color="#E4E5DA"/>
<stop offset="0.75" stop-color="#7F7F79"/>
</linearGradient>
<linearGradient id="paint5_linear_146_606" x1="1131.75" y1="2032" x2="1131.75" y2="2182" gradientUnits="userSpaceOnUse">
<stop stop-color="#E4E5DA"/>
<stop offset="0.75" stop-color="#7F7F79"/>
</linearGradient>
<linearGradient id="paint6_linear_146_606" x1="1330.75" y1="3051" x2="1330.75" y2="3201" gradientUnits="userSpaceOnUse">
<stop stop-color="#7F7F79"/>
<stop offset="0.75" stop-color="#E4E5DA"/>
</linearGradient>
<linearGradient id="paint7_linear_146_606" x1="176.75" y1="1737" x2="176.75" y2="1887" gradientUnits="userSpaceOnUse">
<stop stop-color="#E4E5DA"/>
<stop offset="0.75" stop-color="#7F7F79"/>
</linearGradient>
<linearGradient id="paint8_linear_146_606" x1="295.75" y1="1608" x2="295.75" y2="1758" gradientUnits="userSpaceOnUse">
<stop stop-color="#7F7F79"/>
<stop offset="0.75" stop-color="#E4E5DA"/>
</linearGradient>
<linearGradient id="paint9_linear_146_606" x1="1254.75" y1="1119" x2="1254.75" y2="1269" gradientUnits="userSpaceOnUse">
<stop stop-color="#7F7F79"/>
<stop offset="0.75" stop-color="#E4E5DA"/>
</linearGradient>
<clipPath id="clip0_146_606">
<rect width="1440" height="3893" fill="white"/>
</clipPath>
</defs>
</svg>
