<svg width="200" height="200" viewBox="0 0 200 200" fill="none" xmlns="http://www.w3.org/2000/svg">
<path d="M96.5199 155.6L6.43993 102.36C3.55993 100.76 1.11993 98.12 3.91993 96.36L94.2799 44.28C95.6399 43.44 97.6799 42.88 99.0799 43.68L193.6 98.56C196.48 100.24 197 104.88 194.12 106.56L108.36 155.48C104.72 157.64 100.2 157.68 96.5199 155.6Z" fill="#FF9F9F"/>
<path d="M94.8002 14.92L91.1602 16.52L94.6802 18.08L95.5202 16.28" fill="#E36953"/>
<path d="M127.92 121.72L97.7198 104.12C95.2398 102.68 93.7198 100.04 93.7198 97.16L92.7598 17.24C92.7598 15.16 95.9998 14.08 97.7998 15.16L129.04 33.6C130.6 34.52 131.56 36.2 131.6 38.04V119.6C131.6 120.96 130.48 122.04 129.16 122.04C128.72 122.04 128.28 121.92 127.92 121.72Z" fill="#E36953"/>
<path d="M130.36 121.72L126.4 123.8L126.84 121.08L129.6 120.56" fill="#E36953"/>
<path d="M124.16 123.72L93.96 106.12C91.48 104.68 89.96 102.04 89.96 99.16V18.48C89.96 17.32 90.92 16.36 92.08 16.36C92.48 16.36 92.84 16.48 93.16 16.64L125.28 35.6C126.84 36.52 127.84 38.24 127.84 40.04V121.6C127.84 122.96 126.76 124.04 125.4 124.04C124.96 124.04 124.52 123.92 124.16 123.72Z" fill="white"/>
<path opacity="0.1" d="M124.16 123.72L93.96 106.12C91.48 104.68 89.96 102.04 89.96 99.16V18.48C89.96 17.32 90.92 16.36 92.08 16.36C92.48 16.36 92.84 16.48 93.16 16.64L125.28 35.6C126.84 36.52 127.84 38.24 127.84 40.04V121.6C127.84 122.96 126.76 124.04 125.4 124.04C124.96 124.04 124.52 123.92 124.16 123.72Z" fill="#053855"/>
<path d="M125.92 44.96L91.52 25.24V95.84L125.92 115.72V44.96Z" fill="white"/>
<path d="M106.034 110.817C106.894 110.612 107.366 109.505 107.089 108.345C106.812 107.184 105.89 106.41 105.031 106.615C104.171 106.821 103.699 107.928 103.976 109.088C104.253 110.248 105.175 111.023 106.034 110.817Z" fill="#BABABC"/>
<path d="M104.2 28.64C104.2 28.92 104.36 29.16 104.6 29.32L111.24 33.16C111.6 33.36 112.08 33.24 112.28 32.88C112.36 32.76 112.36 32.64 112.36 32.52V32.36C112.36 32.08 112.2 31.84 111.96 31.68L105.32 28C104.96 27.8 104.48 27.92 104.28 28.32C104.24 28.4 104.2 28.52 104.2 28.64Z" fill="#BABABC"/>
<path d="M101.516 27.5747C101.91 27.429 102.067 26.8742 101.868 26.3356C101.669 25.7969 101.188 25.4784 100.794 25.6241C100.401 25.7698 100.243 26.3245 100.443 26.8632C100.642 27.4018 101.123 27.7204 101.516 27.5747Z" fill="#BABABC"/>
<path d="M115.52 73.04V93.92L111.2 91.4L111.16 70.52L115.52 73.04Z" fill="#5FAD00"/>
<path d="M108.24 65.36L108.32 89.88L103.8 87.24V62.84L108.24 65.36Z" fill="#FF9F9F"/>
<path d="M100.92 58.72L101 85.8L96.96 83.44V56.28L100.92 58.72Z" fill="#FFE427"/>
<path d="M115.12 96.48C115.12 97.04 114.68 97.52 114.12 97.52C113.96 97.52 113.76 97.48 113.64 97.4L95.04 86.76C94.72 86.6 94.52 86.24 94.52 85.88C94.52 85.32 94.96 84.88 95.52 84.88C95.68 84.88 95.88 84.92 96 85L114.6 95.6C114.92 95.8 115.12 96.12 115.12 96.48Z" fill="#FFE427"/>
<path d="M119.2 55.76V63.28C119.2 63.88 118.72 64.32 118.16 64.36C117.96 64.36 117.76 64.32 117.6 64.2L97.1201 52.4C96.8001 52.2 96.6001 51.88 96.6001 51.48V43.96C96.6001 43.36 97.0801 42.92 97.6401 42.88C97.8401 42.88 98.0401 42.92 98.2001 43.04L118.68 54.84C119 55 119.2 55.36 119.2 55.76Z" fill="#FFE427"/>
<path d="M115.601 60.8065C117.012 60.3588 117.706 58.5791 117.152 56.8315C116.597 55.0839 115.004 54.0302 113.593 54.4779C112.182 54.9257 111.488 56.7053 112.043 58.4529C112.598 60.2005 114.191 61.2543 115.601 60.8065Z" fill="white"/>
<path d="M111.32 53.04L100.84 47.16L99.36 46.36C98.92 46.12 98.56 46.76 99 47L109.52 52.88L111 53.68C111.2 53.76 111.4 53.72 111.52 53.52C111.56 53.36 111.48 53.16 111.32 53.04Z" fill="#053855"/>
<path d="M110.88 55.96L104.36 52.32L103.44 51.8C103.24 51.72 103.04 51.76 102.92 51.96C102.84 52.12 102.88 52.36 103.04 52.44L109.56 56.08L110.48 56.6C110.68 56.68 110.88 56.64 111 56.44C111.08 56.28 111.04 56.08 110.88 55.96Z" fill="#053855"/>
<path d="M144.24 64.84C144.2 64.96 143.92 65.96 143.72 65.76C143.52 65.56 142.4 66.04 142.4 66.04L139.28 62.08L139.68 60.8H142.48" fill="#68E1FD"/>
<path d="M129.16 47.72L128.88 46.68L125.6 44.88V39.28C125.6 39.16 128.76 41.16 128.76 41.16L128.92 40.84C129.12 40 129.44 39.16 129.88 38.44L127.56 34.16L130.48 31.92L132.68 36.32C133.48 36.12 134.32 36.16 135.08 36.36V32.2L139.28 34.52V38.92C140.12 39.72 140.84 40.56 141.52 41.48L144.04 39.88L146.88 45.32L144.6 47.12L144.8 48.04C145.08 49 145.32 50 145.52 50.96L148.88 52.8V58.36L145.68 56.44C145.56 57.44 145.2 58.44 144.64 59.28L147.04 63.36L144 65.68L141.84 61.48H139.16V65.68L135.16 63.24V59.2C134.24 58.28 133.44 57.28 132.76 56.2L130.36 57.84L127.44 52.28L129.84 50.48L129.6 49.64C129.48 49 129.28 48.36 129.16 47.72Z" fill="#68E1FD"/>
<path d="M121.52 41.64L125.24 39.4L126.16 40.76L124.72 43.8" fill="#68E1FD"/>
<path d="M126.4 60.16L129.16 59.04V57.36" fill="#68E1FD"/>
<path d="M135.24 68.08L139.24 65.76L138.24 62.68L134.6 63.76L135.24 68.08Z" fill="#68E1FD"/>
<path d="M130.48 31.96L126.44 34.28L128.64 38.72L131.08 38.76L131.64 34.28L130.48 31.96Z" fill="#68E1FD"/>
<path d="M134.101 54.1373C135.026 53.7737 135.265 52.179 134.635 50.5752C134.005 48.9715 132.744 47.9662 131.819 48.3297C130.894 48.6933 130.654 50.288 131.285 51.8918C131.915 53.4955 133.176 54.5008 134.101 54.1373Z" fill="#68E1FD"/>
<path d="M139.32 34.52L135.28 36.84L131.08 34.52L135.12 32.2L139.32 34.52Z" fill="#68E1FD"/>
<path d="M140.04 42.24L144.08 39.92L146.96 45.36L142.92 47.68L140.04 42.24Z" fill="#68E1FD"/>
<path d="M147.12 63.44L143.08 65.76L140.04 68.08L144.08 65.76L147.12 63.44Z" fill="#68E1FD"/>
<path opacity="0.44" d="M144.24 64.84C144.2 64.96 143.92 65.96 143.72 65.76C143.52 65.56 142.4 66.04 142.4 66.04L139.28 62.08L139.68 60.8H142.48" fill="#053855"/>
<path d="M129.16 47.72L128.88 46.68L125.6 44.88V39.28C125.6 39.16 128.76 41.16 128.76 41.16L128.92 40.84C129.12 40 129.44 39.16 129.88 38.44L127.56 34.16L130.48 31.92L132.68 36.32C133.48 36.12 134.32 36.16 135.08 36.36V32.2L139.28 34.52V38.92C140.12 39.72 140.84 40.56 141.52 41.48L144.04 39.88L146.88 45.32L144.6 47.12L144.8 48.04C145.08 49 145.32 50 145.52 50.96L148.88 52.8V58.36L145.68 56.44C145.56 57.44 145.2 58.44 144.64 59.28L147.04 63.36L144 65.68L141.84 61.48H139.16V65.68L135.16 63.24V59.2C134.24 58.28 133.44 57.28 132.76 56.2L130.36 57.84L127.44 52.28L129.84 50.48L129.6 49.64C129.48 49 129.28 48.36 129.16 47.72Z" fill="#68E1FD"/>
<path opacity="0.44" d="M121.52 41.64L125.24 39.4L126.16 40.76L124.72 43.8" fill="#053855"/>
<path d="M126.4 60.16L129.16 59.04V57.36" fill="#68E1FD"/>
<path d="M135.24 68.08L139.24 65.76L138.24 62.68L134.6 63.76L135.24 68.08Z" fill="#68E1FD"/>
<path d="M130.48 31.96L126.44 34.28L128.64 38.72L131.08 38.76L131.64 34.28L130.48 31.96Z" fill="#68E1FD"/>
<path d="M134.101 54.1373C135.026 53.7737 135.265 52.179 134.635 50.5752C134.005 48.9715 132.744 47.9662 131.819 48.3297C130.894 48.6933 130.654 50.288 131.285 51.8918C131.915 53.4955 133.176 54.5008 134.101 54.1373Z" fill="#68E1FD"/>
<path d="M140.04 42.24L144.08 39.92L146.96 45.36L142.92 47.68L140.04 42.24Z" fill="#68E1FD"/>
<path d="M147.12 63.44L143.08 65.76L140.04 68.08L144.08 65.76L147.12 63.44Z" fill="#68E1FD"/>
<path opacity="0.44" d="M129.16 47.72L128.88 46.68L125.6 44.88V39.28C125.6 39.16 128.76 41.16 128.76 41.16L128.92 40.84C129.12 40 129.44 39.16 129.88 38.44L127.56 34.16L130.48 31.92L132.68 36.32C133.48 36.12 134.32 36.16 135.08 36.36V32.2L139.28 34.52V38.92C140.12 39.72 140.84 40.56 141.52 41.48L144.04 39.88L146.88 45.32L144.6 47.12L144.8 48.04C145.08 49 145.32 50 145.52 50.96L148.88 52.8V58.36L145.68 56.44C145.56 57.44 145.2 58.44 144.64 59.28L147.04 63.36L144 65.68L141.84 61.48H139.16V65.68L135.16 63.24V59.2C134.24 58.28 133.44 57.28 132.76 56.2L130.36 57.84L127.44 52.28L129.84 50.48L129.6 49.64C129.48 49 129.28 48.36 129.16 47.72Z" fill="#053855"/>
<path opacity="0.1" d="M126.4 60.16L129.16 59.04V57.36" fill="#053855"/>
<path opacity="0.1" d="M135.24 68.08L139.24 65.76L138.24 62.68L134.6 63.76L135.24 68.08Z" fill="#053855"/>
<path opacity="0.1" d="M134.101 54.1373C135.026 53.7737 135.265 52.179 134.635 50.5752C134.005 48.9715 132.744 47.9662 131.819 48.3297C130.894 48.6933 130.654 50.288 131.285 51.8918C131.915 53.4955 133.176 54.5008 134.101 54.1373Z" fill="#053855"/>
<path opacity="0.1" d="M140.04 42.24L144.08 39.92L146.96 45.36L142.92 47.68L140.04 42.24Z" fill="#053855"/>
<path opacity="0.1" d="M147.12 63.44L143.08 65.76L140.04 68.08L144.08 65.76L147.12 63.44Z" fill="#053855"/>
<path opacity="0.1" d="M126.4 60.16L129.16 59.04V57.36" fill="#053855"/>
<path opacity="0.44" d="M135.24 68.08L139.24 65.76L138.24 62.68L134.6 63.76L135.24 68.08Z" fill="#053855"/>
<path d="M125.12 50.08L124.84 49.04L121.56 47.24V41.64C121.56 41.52 124.72 43.52 124.72 43.52L124.88 43.2C125.08 42.36 125.4 41.52 125.84 40.8L123.52 36.52L126.44 34.28L128.64 38.68C129.44 38.48 130.28 38.52 131.08 38.72V34.52L135.28 36.84V41.24C136.12 42.04 136.84 42.88 137.52 43.8L140.04 42.16L142.88 47.6L140.6 49.4L140.8 50.32C141.08 51.28 141.32 52.28 141.52 53.28L144.88 55.12V60.68L141.68 58.76C141.56 59.76 141.2 60.76 140.64 61.6L143.04 65.68L140 68L137.84 63.8H135.2V68L131.2 65.56V61.44C130.28 60.52 129.48 59.52 128.8 58.44L126.4 60.08L123.48 54.52L125.88 52.72L125.64 51.88C125.44 51.36 125.24 50.68 125.12 50.08Z" fill="#68E1FD"/>
<path opacity="0.44" d="M134.101 54.1373C135.026 53.7737 135.265 52.179 134.635 50.5752C134.005 48.9715 132.744 47.9662 131.819 48.3297C130.894 48.6933 130.654 50.288 131.285 51.8918C131.915 53.4955 133.176 54.5008 134.101 54.1373Z" fill="#053855"/>
<path opacity="0.44" d="M147.12 63.44L143.08 65.76L140.04 68.08L144.08 65.76L147.12 63.44Z" fill="#053855"/>
<path d="M139.32 34.52L135.28 36.84L131.08 34.52L135.12 32.2L139.32 34.52Z" fill="#68E1FD"/>
<path opacity="0.44" d="M139.32 34.52L135.28 36.84L131.08 34.52L135.12 32.2L139.32 34.52Z" fill="#053855"/>
<path d="M148.96 52.84L144.92 55.16V60.76L148.96 58.44V52.84Z" fill="#68E1FD"/>
<path opacity="0.44" d="M148.96 52.84L144.92 55.16V60.76L148.96 58.44V52.84Z" fill="#053855"/>
<path d="M155.4 96.84C155.36 96.92 155.16 97.76 154.96 97.56C154.76 97.36 153.88 97.76 153.88 97.76L151.36 94.56L151.68 93.52H153.96" fill="#68E1FD"/>
<path d="M143.2 83L142.96 82.16L140.32 80.72V76.2C140.32 76.12 142.88 77.72 142.88 77.72L143 77.48C143.16 76.8 143.4 76.12 143.8 75.52L141.92 72.08L144.28 70.28L146.04 73.84C146.68 73.68 147.36 73.72 148 73.88V70.44L151.4 72.32V75.88C152.08 76.52 152.68 77.2 153.2 77.96L155.24 76.64L157.56 81.04L155.72 82.48L155.88 83.24C156.12 84.04 156.32 84.8 156.44 85.6L159.16 87.12V91.64L156.56 90.08C156.44 90.88 156.16 91.68 155.72 92.4L157.68 95.72L155.24 97.6L153.52 94.2H151.36V97.6L148.12 95.64V92.28C147.36 91.56 146.72 90.72 146.16 89.84L144.2 91.2L141.84 86.72L143.8 85.28L143.6 84.6C143.44 84.04 143.32 83.52 143.2 83Z" fill="#68E1FD"/>
<path d="M137.04 78.08L140.04 76.28L140.8 77.36L139.64 79.8" fill="#68E1FD"/>
<path d="M140.96 93.08L143.2 92.16V90.8" fill="#68E1FD"/>
<path d="M148.12 99.48L151.36 97.6L150.56 95.12L147.6 96L148.12 99.48Z" fill="#68E1FD"/>
<path d="M144.28 70.24L141 72.12L142.8 75.68L144.76 75.72L145.2 72.12L144.28 70.24Z" fill="#68E1FD"/>
<path d="M147.196 88.178C147.957 87.879 148.161 86.5867 147.652 85.2914C147.143 83.9961 146.114 83.1883 145.353 83.4872C144.592 83.7862 144.388 85.0785 144.897 86.3738C145.406 87.6691 146.435 88.4769 147.196 88.178Z" fill="#68E1FD"/>
<path d="M151.44 72.32L148.16 74.2L144.76 72.32L148.04 70.44L151.44 72.32Z" fill="#68E1FD"/>
<path d="M152 78.56L155.28 76.68L157.6 81.08L154.32 82.96L152 78.56Z" fill="#68E1FD"/>
<path d="M157.72 95.72L154.48 97.6L152 99.48L155.28 97.6L157.72 95.72Z" fill="#68E1FD"/>
<path opacity="0.44" d="M155.4 96.84C155.36 96.92 155.16 97.76 154.96 97.56C154.76 97.36 153.88 97.76 153.88 97.76L151.36 94.56L151.68 93.52H153.96" fill="#053855"/>
<path d="M143.2 83L142.96 82.16L140.32 80.72V76.2C140.32 76.12 142.88 77.72 142.88 77.72L143 77.48C143.16 76.8 143.4 76.12 143.8 75.52L141.92 72.08L144.28 70.28L146.04 73.84C146.68 73.68 147.36 73.72 148 73.88V70.44L151.4 72.32V75.88C152.08 76.52 152.68 77.2 153.2 77.96L155.24 76.64L157.56 81.04L155.72 82.48L155.88 83.24C156.12 84.04 156.32 84.8 156.44 85.6L159.16 87.12V91.64L156.56 90.08C156.44 90.88 156.16 91.68 155.72 92.4L157.68 95.72L155.24 97.6L153.52 94.2H151.36V97.6L148.12 95.64V92.28C147.36 91.56 146.72 90.72 146.16 89.84L144.2 91.2L141.84 86.72L143.8 85.28L143.6 84.6C143.44 84.04 143.32 83.52 143.2 83Z" fill="#68E1FD"/>
<path opacity="0.44" d="M137.04 78.08L140.04 76.28L140.8 77.36L139.64 79.8" fill="#053855"/>
<path d="M140.96 93.08L143.2 92.16V90.8" fill="#68E1FD"/>
<path d="M148.12 99.48L151.36 97.6L150.56 95.12L147.6 96L148.12 99.48Z" fill="#68E1FD"/>
<path d="M144.28 70.24L141 72.12L142.8 75.68L144.76 75.72L145.2 72.12L144.28 70.24Z" fill="#68E1FD"/>
<path d="M147.196 88.178C147.957 87.879 148.161 86.5867 147.652 85.2914C147.143 83.9961 146.114 83.1883 145.353 83.4872C144.592 83.7862 144.388 85.0785 144.897 86.3738C145.406 87.6691 146.435 88.4769 147.196 88.178Z" fill="#68E1FD"/>
<path d="M152 78.56L155.28 76.68L157.6 81.08L154.32 82.96L152 78.56Z" fill="#68E1FD"/>
<path d="M157.72 95.72L154.48 97.6L152 99.48L155.28 97.6L157.72 95.72Z" fill="#68E1FD"/>
<path opacity="0.44" d="M143.2 83L142.96 82.16L140.32 80.72V76.2C140.32 76.12 142.88 77.72 142.88 77.72L143 77.48C143.16 76.8 143.4 76.12 143.8 75.52L141.92 72.08L144.28 70.28L146.04 73.84C146.68 73.68 147.36 73.72 148 73.88V70.44L151.4 72.32V75.88C152.08 76.52 152.68 77.2 153.2 77.96L155.24 76.64L157.56 81.04L155.72 82.48L155.88 83.24C156.12 84.04 156.32 84.8 156.44 85.6L159.16 87.12V91.64L156.56 90.08C156.44 90.88 156.16 91.68 155.72 92.4L157.68 95.72L155.24 97.6L153.52 94.2H151.36V97.6L148.12 95.64V92.28C147.36 91.56 146.72 90.72 146.16 89.84L144.2 91.2L141.84 86.72L143.8 85.28L143.6 84.6C143.44 84.04 143.32 83.52 143.2 83Z" fill="#053855"/>
<path opacity="0.1" d="M140.96 93.08L143.2 92.16V90.8" fill="#053855"/>
<path opacity="0.1" d="M148.12 99.48L151.36 97.6L150.56 95.12L147.6 96L148.12 99.48Z" fill="#053855"/>
<path opacity="0.1" d="M147.196 88.178C147.957 87.879 148.161 86.5867 147.652 85.2914C147.143 83.9961 146.114 83.1883 145.353 83.4872C144.592 83.7862 144.388 85.0785 144.897 86.3738C145.406 87.6691 146.435 88.4769 147.196 88.178Z" fill="#053855"/>
<path opacity="0.1" d="M152 78.56L155.28 76.68L157.6 81.08L154.32 82.96L152 78.56Z" fill="#053855"/>
<path opacity="0.1" d="M157.72 95.72L154.48 97.6L152 99.48L155.28 97.6L157.72 95.72Z" fill="#053855"/>
<path opacity="0.1" d="M140.96 93.08L143.2 92.16V90.8" fill="#053855"/>
<path opacity="0.44" d="M148.12 99.48L151.36 97.6L150.56 95.12L147.6 96L148.12 99.48Z" fill="#053855"/>
<path d="M139.92 84.88L139.68 84.04L137.04 82.6V78.08C137.04 78 139.6 79.6 139.6 79.6L139.72 79.36C139.88 78.68 140.12 78 140.52 77.4L138.64 73.96L141 72.16L142.8 75.72C143.44 75.56 144.12 75.6 144.76 75.76V72.32L148.16 74.2V77.76C148.84 78.4 149.44 79.08 149.96 79.84L152 78.52L154.32 82.92L152.52 84.36L152.68 85.12C152.92 85.92 153.12 86.72 153.24 87.52L155.96 89.04V93.56L153.36 92C153.24 92.84 152.96 93.6 152.52 94.32L154.48 97.64L152 99.48L150.28 96.08H148.12V99.48L144.88 97.52V94.16C144.12 93.44 143.48 92.6 142.92 91.72L140.96 93.04L138.6 88.56L140.56 87.12L140.36 86.44C140.2 85.92 140.04 85.4 139.92 84.88Z" fill="#68E1FD"/>
<path opacity="0.44" d="M147.196 88.178C147.957 87.879 148.161 86.5867 147.652 85.2914C147.143 83.9961 146.114 83.1883 145.353 83.4872C144.592 83.7862 144.388 85.0785 144.897 86.3738C145.406 87.6691 146.435 88.4769 147.196 88.178Z" fill="#053855"/>
<path opacity="0.44" d="M157.72 95.72L154.48 97.6L152 99.48L155.28 97.6L157.72 95.72Z" fill="#053855"/>
<path d="M151.44 72.32L148.16 74.2L144.76 72.32L148.04 70.44L151.44 72.32Z" fill="#68E1FD"/>
<path opacity="0.44" d="M151.44 72.32L148.16 74.2L144.76 72.32L148 70.44L151.44 72.32Z" fill="#053855"/>
<path d="M159.2 87.16L155.96 89.04V93.56L159.2 91.64V87.16Z" fill="#68E1FD"/>
<path opacity="0.44" d="M159.2 87.16L155.96 89.04V93.56L159.2 91.64V87.16Z" fill="#053855"/>
<path d="M106.56 70.4C106.56 70.4 107.44 68.8 107.72 68.32C108 67.84 109.28 66.04 109.84 66C110.8 65.96 109.04 68.28 109.44 68.52C109.84 68.76 112.8 66.28 113.44 66.12C114.84 65.72 114.04 66.92 114.04 66.92C114.04 66.92 115.24 66.6 115.44 67.04C115.64 67.48 114.72 68.12 114.72 68.12C114.72 68.12 115.4 67.88 115.44 68.48C115.48 69.08 114.72 69.36 114.72 69.36C114.72 69.36 115.56 69.56 115.04 70.24C114.8 70.6 109.2 72.48 108.64 72.8C108.08 73.12 106.56 70.4 106.56 70.4Z" fill="#EEAD97"/>
<path d="M114.008 66.8747L111.011 68.6446L111.072 68.7479L114.069 66.978L114.008 66.8747Z" fill="#744122"/>
<path d="M114.717 68.0614L111.717 69.3871L111.765 69.4969L114.766 68.1711L114.717 68.0614Z" fill="#744122"/>
<path d="M112.2 70.32L112.16 70.2L114.72 69.24L114.76 69.36L112.2 70.32Z" fill="#744122"/>
<path d="M88.16 131.6C87.2 131 85.92 132.04 85.12 131.96C84.32 131.88 84 127.4 84 127.4L79.28 127.24L79 136.12C79.6 136.52 80.28 136.88 80.96 137.12C80.96 137.12 80.64 133.04 81.52 133.16C82.4 133.28 82.68 136.4 83.72 136.72C84.76 137.04 87.88 135.04 88.44 134.68C89 134.32 89.12 132.2 88.16 131.6Z" fill="#744122"/>
<path d="M97.9198 137.36C96.9998 136.76 95.6798 137.8 94.8798 137.72C94.0798 137.64 93.7598 133.16 93.7598 133.16L89.0398 133L88.7598 141.88C89.3598 142.28 90.0398 142.6 90.7198 142.88C90.7198 142.88 90.3998 138.8 91.2798 138.92C92.1598 139.04 92.4398 142.16 93.4798 142.48C94.5198 142.8 97.6398 140.8 98.1998 140.44C98.7598 140.08 98.8798 138 97.9198 137.36Z" fill="#744122"/>
<path d="M80.2 87.76C80.2 87.76 76.68 94.44 77.32 131.72C77.32 131.72 81.2 134.4 87.36 133C87.36 133 87.6 89.52 86.96 87.96C86.32 86.4 80.2 87.76 80.2 87.76Z" fill="#68E1FD"/>
<path d="M91.8801 86.96C93.2001 95.56 94.5201 104.2 95.2801 112.88C95.9201 120.28 96.0801 127.72 96.4801 135.12C96.4801 135.4 96.5201 135.68 96.5201 135.92C96.5201 135.92 91.1601 139 85.1201 136.16C85.1201 136.16 83.4401 99.96 83.6001 95C83.7601 90.04 84.0001 84.32 86.7601 83.52C89.5201 82.72 91.8801 86.96 91.8801 86.96Z" fill="#68E1FD"/>
<path d="M79.8799 69.48C79.8799 69.48 72.7999 78.6 74.5599 81.72C76.3199 84.84 83.6399 82.4 83.6399 82.4" fill="#5FAD00"/>
<path d="M106.4 69.24C106.4 69.24 100.12 74.84 97.6399 73.28C88.7599 67.68 86.8399 67.68 86.8399 67.68C86.8399 67.68 80.1999 65.52 79.2399 68.4C78.2799 71.28 79.3199 87.2 80.3999 88.48C80.3999 88.52 80.4399 88.52 80.4399 88.52C80.9999 88.88 81.5599 89.16 82.1599 89.4C83.0799 89.68 84.0399 89.88 84.9999 90C87.0399 90.08 89.9999 89.4 91.6799 88.2C92.5599 85.96 92.7999 78.36 92.7999 78.36C92.7999 78.36 96.3599 81.08 100.44 80C104.04 79.04 109.6 73.32 109.6 73.32C109.48 71.12 106.4 69.24 106.4 69.24Z" fill="#5FAD00"/>
<path d="M90.6002 61.44C90.6002 61.44 90.8402 67.44 89.6402 67.52C88.4402 67.6 86.1602 67 86.1602 65.84C86.1602 64.68 86.1602 61.96 87.2402 61.6C88.3202 61.24 90.0402 60.36 90.6002 61.44Z" fill="#EEAD97"/>
<path d="M90.7199 62.12C90.7199 62.12 92.2399 59.88 89.6799 58.4C87.1199 56.92 82.8799 57.24 81.8399 60.56C80.8799 63.68 81.9199 64.24 80.3999 65.28C78.8799 66.32 76.9199 67.4 77.6799 69.4C78.4399 71.4 78.9199 70.68 79.2799 71.52C79.6399 72.36 78.1199 73.64 79.0399 75.12C79.9599 76.6 84.2399 77.8 85.8799 76C87.5199 74.2 86.5999 71.68 87.7999 71.2C88.9999 70.72 89.7599 69.32 89.5199 68.24C89.2799 67.16 87.0399 65.12 87.8799 63.96C88.7199 62.8 90.7199 62.12 90.7199 62.12Z" fill="#744122"/>
<path d="M83.8802 98.32C83.8802 97.88 83.1602 97.84 83.1602 98.28C83.4402 110.92 84.0402 123.52 85.0402 136.12C85.0802 136.56 85.8002 136.6 85.7602 136.16C84.7602 123.56 84.1202 110.96 83.8802 98.32Z" fill="#053855"/>
<path d="M37.4396 104.88C43.1613 104.88 47.7996 101.621 47.7996 97.6C47.7996 93.5793 43.1613 90.32 37.4396 90.32C31.7179 90.32 27.0796 93.5793 27.0796 97.6C27.0796 101.621 31.7179 104.88 37.4396 104.88Z" fill="#68E1FD"/>
<path d="M37.4397 96.44C41.7254 96.44 45.1997 95.0252 45.1997 93.28C45.1997 91.5347 41.7254 90.12 37.4397 90.12C33.154 90.12 29.6797 91.5347 29.6797 93.28C29.6797 95.0252 33.154 96.44 37.4397 96.44Z" fill="#744122"/>
<path d="M37.9598 93.36C38.5598 92.52 39.1598 91.6 39.8398 90.6C40.6398 89.32 41.4398 88 42.1198 86.64C42.7598 85.44 43.3198 84.2 43.7998 82.88C44.3198 81.48 44.7198 80.04 45.0398 78.6C45.1198 78.2 45.1998 77.84 45.2398 77.44C45.2798 77.28 45.2798 77.28 45.2798 77.32C45.2798 77.36 45.2798 77.2 45.3198 77C45.3998 76.2 45.4398 75.44 45.4398 74.64C45.4798 71.92 44.9598 69.24 43.9198 66.72C41.1198 70.8 39.2398 75.4 38.3998 80.28C38.3598 80.56 38.2798 80.84 38.2398 81.16C38.2398 81.12 38.1598 81.68 38.1198 81.92C38.0798 82.16 38.0398 82.6 38.0398 82.64C37.9998 83 37.9598 83.4 37.9598 83.76C37.8398 85.2 37.7998 86.6 37.7998 88.04C37.7198 89.76 37.8398 91.56 37.9598 93.36Z" fill="#5FAD00"/>
<path d="M38.16 93.48C38.2 92.44 38.24 91.32 38.24 90.16C38.24 88.64 38.16 87.12 38.04 85.6C37.96 84.24 37.72 82.88 37.44 81.56C37.12 80.12 36.68 78.68 36.16 77.28C36.04 76.92 35.88 76.56 35.72 76.2C35.64 76.04 35.68 76.04 35.68 76.08L35.52 75.8C35.16 75.12 34.76 74.4 34.36 73.76C32.92 71.44 31 69.48 28.76 67.92C28.6 72.84 29.52 77.76 31.44 82.32C31.56 82.6 31.68 82.88 31.76 83.12C31.76 83.12 32 83.6 32.08 83.8C32.16 84 32.4 84.4 32.4 84.44C32.56 84.76 32.72 85.12 32.92 85.44C33.6 86.72 34.32 87.92 35.12 89.12C36.04 90.6 37.08 92.04 38.16 93.48Z" fill="#5FAD00"/>
<path d="M38.1998 94.04C37.8798 93.44 37.5598 92.84 37.1598 92.2C36.6798 91.36 36.1198 90.56 35.5598 89.8C35.0798 89.08 34.5198 88.44 33.9198 87.8C33.2798 87.12 32.5598 86.48 31.8398 85.92C31.6398 85.76 31.4398 85.64 31.2398 85.48C31.1598 85.4 31.1598 85.4 31.1598 85.44L30.9598 85.32C30.5598 85.08 30.1198 84.8 29.6798 84.6C28.1598 83.8 26.4798 83.36 24.7998 83.24C26.3198 85.96 28.3998 88.32 30.8798 90.16L31.3198 90.48L31.7198 90.76L32.1198 91L32.7198 91.36C33.4798 91.8 34.2798 92.24 35.0798 92.64C36.1198 93.16 37.1598 93.6 38.1998 94.04Z" fill="#5FAD00"/>
<path d="M94.2802 53.84V32.88C94.2802 32 93.8002 31.16 93.0402 30.68L79.6802 22.68C78.9202 22.24 77.9202 22.48 77.4802 23.24C77.3202 23.48 77.2402 23.76 77.2402 24.08V45.08C77.2402 46.08 77.7602 46.96 78.6402 47.44L92.5602 54.92C93.1202 55.24 93.8402 55 94.1602 54.44C94.2402 54.24 94.2802 54.04 94.2802 53.84Z" fill="#68E1FD"/>
<path d="M82.9201 30.8C85.8001 29.88 89.0001 32.24 90.2401 36.12C90.8001 37.8 90.8401 39.64 90.3601 41.36C89.8401 43.08 88.7601 44.28 87.3201 44.72C86.9201 44.84 86.4801 44.92 86.0801 44.92C84.9201 44.88 83.8001 44.48 82.9201 43.72C81.5601 42.6 80.5201 41.08 80.0401 39.36C78.7601 35.48 80.0401 31.68 82.9201 30.8Z" fill="white"/>
<path d="M85.1203 30.68C85.1603 30.68 85.1203 37.92 85.1203 37.92L79.8003 34.32C79.8003 34.32 80.8403 29.92 85.1203 30.68Z" fill="#FF9F9F"/>
<path d="M85.1203 37.92L79.7603 38.36C79.7603 38.36 79.0803 36.04 79.8403 34.28L85.1203 37.92Z" fill="#5FAD00"/>
</svg>
