<svg width="1440" height="623" viewBox="0 0 1440 623" fill="none" xmlns="http://www.w3.org/2000/svg">
<rect y="-33" width="825" height="656" fill="#92C7CF"/>
<path d="M818 -18H1440L825 623L818 -18Z" fill="#92C7CF"/>
<path d="M171.339 508.175C174.717 497.925 184.291 491 195.083 491H342.438C359.466 491 371.512 507.652 366.182 523.825L339.16 605.825C335.782 616.075 326.208 623 315.416 623H168.061C151.033 623 138.988 606.348 144.317 590.175L171.339 508.175Z" fill="#E4E5DA" fill-opacity="0.3"/>
<path d="M221.335 -15.8344C224.716 -26.0794 234.287 -33 245.076 -33H392.423C409.456 -33 421.502 -16.34 416.164 -0.165627L366.665 149.834C363.284 160.079 353.712 167 342.924 167H195.576C178.544 167 166.498 150.34 171.835 134.166L221.335 -15.8344Z" fill="#E5E1DA" fill-opacity="0.3"/>
<path d="M326.335 364.166C329.716 353.921 339.287 347 350.076 347H497.423C514.456 347 526.502 363.66 521.164 379.834L471.665 529.834C468.284 540.079 458.712 547 447.924 547H300.576C283.544 547 271.498 530.34 276.835 514.166L326.335 364.166Z" fill="#E5E1DA" fill-opacity="0.3"/>
<path d="M776.335 164.166C779.716 153.921 789.287 147 800.076 147H947.423C964.456 147 976.502 163.66 971.164 179.834L921.665 329.834C918.284 340.079 908.712 347 897.924 347H750.576C733.544 347 721.498 330.34 726.835 314.166L776.335 164.166Z" fill="#E5E1DA" fill-opacity="0.3"/>
<path d="M923.335 38.1656C926.716 27.9206 936.287 21 947.076 21H1094.42C1111.46 21 1123.5 37.66 1118.16 53.8344L1068.66 203.834C1065.28 214.079 1055.71 221 1044.92 221H897.576C880.544 221 868.498 204.34 873.835 188.166L923.335 38.1656Z" fill="#E5E1DA" fill-opacity="0.3"/>
</svg>
