<svg width="1440" height="736" viewBox="0 0 1440 736" fill="none" xmlns="http://www.w3.org/2000/svg">
<rect y="-33" width="825" height="769" fill="#92C7CF"/>
<path d="M770.5 0L1440 -18L825 736L770.5 0Z" fill="#92C7CF"/>
<g filter="url(#filter0_d_160_6)">
<path d="M221.335 -15.8344C224.716 -26.0794 234.287 -33 245.076 -33H392.423C409.456 -33 421.502 -16.34 416.164 -0.165627L366.665 149.834C363.284 160.079 353.712 167 342.924 167H195.576C178.544 167 166.498 150.34 171.835 134.166L221.335 -15.8344Z" fill="#E5E1DA" fill-opacity="0.3" shape-rendering="crispEdges"/>
</g>
<g filter="url(#filter1_d_160_6)">
<path d="M326.335 364.166C329.716 353.921 339.287 347 350.076 347H497.423C514.456 347 526.502 363.66 521.164 379.834L471.665 529.834C468.284 540.079 458.712 547 447.924 547H300.576C283.544 547 271.498 530.34 276.835 514.166L326.335 364.166Z" fill="#E5E1DA" fill-opacity="0.3" shape-rendering="crispEdges"/>
</g>
<g filter="url(#filter2_d_160_6)">
<path d="M207.335 508.166C210.716 497.921 220.287 491 231.076 491H378.423C395.456 491 407.502 507.66 402.164 523.834L352.665 673.834C349.284 684.079 339.712 691 328.924 691H181.576C164.544 691 152.498 674.34 157.835 658.166L207.335 508.166Z" fill="#E5E1DA" fill-opacity="0.3" shape-rendering="crispEdges"/>
</g>
<g filter="url(#filter3_d_160_6)">
<path d="M776.335 164.166C779.716 153.921 789.287 147 800.076 147H947.423C964.456 147 976.502 163.66 971.164 179.834L921.665 329.834C918.284 340.079 908.712 347 897.924 347H750.576C733.544 347 721.498 330.34 726.835 314.166L776.335 164.166Z" fill="#E5E1DA" fill-opacity="0.3" shape-rendering="crispEdges"/>
</g>
<g filter="url(#filter4_d_160_6)">
<path d="M923.335 38.1656C926.716 27.9206 936.287 21 947.076 21H1094.42C1111.46 21 1123.5 37.66 1118.16 53.8344L1068.66 203.834C1065.28 214.079 1055.71 221 1044.92 221H897.576C880.544 221 868.498 204.34 873.835 188.166L923.335 38.1656Z" fill="#E5E1DA" fill-opacity="0.3" shape-rendering="crispEdges"/>
</g>
<defs>
<filter id="filter0_d_160_6" x="166.557" y="-33" width="254.885" height="208" filterUnits="userSpaceOnUse" color-interpolation-filters="sRGB">
<feFlood flood-opacity="0" result="BackgroundImageFix"/>
<feColorMatrix in="SourceAlpha" type="matrix" values="0 0 0 0 0 0 0 0 0 0 0 0 0 0 0 0 0 0 127 0" result="hardAlpha"/>
<feOffset dy="4"/>
<feGaussianBlur stdDeviation="2"/>
<feComposite in2="hardAlpha" operator="out"/>
<feColorMatrix type="matrix" values="0 0 0 0 0 0 0 0 0 0 0 0 0 0 0 0 0 0 0.25 0"/>
<feBlend mode="normal" in2="BackgroundImageFix" result="effect1_dropShadow_160_6"/>
<feBlend mode="normal" in="SourceGraphic" in2="effect1_dropShadow_160_6" result="shape"/>
</filter>
<filter id="filter1_d_160_6" x="271.557" y="347" width="254.885" height="208" filterUnits="userSpaceOnUse" color-interpolation-filters="sRGB">
<feFlood flood-opacity="0" result="BackgroundImageFix"/>
<feColorMatrix in="SourceAlpha" type="matrix" values="0 0 0 0 0 0 0 0 0 0 0 0 0 0 0 0 0 0 127 0" result="hardAlpha"/>
<feOffset dy="4"/>
<feGaussianBlur stdDeviation="2"/>
<feComposite in2="hardAlpha" operator="out"/>
<feColorMatrix type="matrix" values="0 0 0 0 0 0 0 0 0 0 0 0 0 0 0 0 0 0 0.25 0"/>
<feBlend mode="normal" in2="BackgroundImageFix" result="effect1_dropShadow_160_6"/>
<feBlend mode="normal" in="SourceGraphic" in2="effect1_dropShadow_160_6" result="shape"/>
</filter>
<filter id="filter2_d_160_6" x="152.557" y="491" width="254.885" height="208" filterUnits="userSpaceOnUse" color-interpolation-filters="sRGB">
<feFlood flood-opacity="0" result="BackgroundImageFix"/>
<feColorMatrix in="SourceAlpha" type="matrix" values="0 0 0 0 0 0 0 0 0 0 0 0 0 0 0 0 0 0 127 0" result="hardAlpha"/>
<feOffset dy="4"/>
<feGaussianBlur stdDeviation="2"/>
<feComposite in2="hardAlpha" operator="out"/>
<feColorMatrix type="matrix" values="0 0 0 0 0 0 0 0 0 0 0 0 0 0 0 0 0 0 0.25 0"/>
<feBlend mode="normal" in2="BackgroundImageFix" result="effect1_dropShadow_160_6"/>
<feBlend mode="normal" in="SourceGraphic" in2="effect1_dropShadow_160_6" result="shape"/>
</filter>
<filter id="filter3_d_160_6" x="721.557" y="147" width="254.885" height="208" filterUnits="userSpaceOnUse" color-interpolation-filters="sRGB">
<feFlood flood-opacity="0" result="BackgroundImageFix"/>
<feColorMatrix in="SourceAlpha" type="matrix" values="0 0 0 0 0 0 0 0 0 0 0 0 0 0 0 0 0 0 127 0" result="hardAlpha"/>
<feOffset dy="4"/>
<feGaussianBlur stdDeviation="2"/>
<feComposite in2="hardAlpha" operator="out"/>
<feColorMatrix type="matrix" values="0 0 0 0 0 0 0 0 0 0 0 0 0 0 0 0 0 0 0.25 0"/>
<feBlend mode="normal" in2="BackgroundImageFix" result="effect1_dropShadow_160_6"/>
<feBlend mode="normal" in="SourceGraphic" in2="effect1_dropShadow_160_6" result="shape"/>
</filter>
<filter id="filter4_d_160_6" x="868.557" y="21" width="254.885" height="208" filterUnits="userSpaceOnUse" color-interpolation-filters="sRGB">
<feFlood flood-opacity="0" result="BackgroundImageFix"/>
<feColorMatrix in="SourceAlpha" type="matrix" values="0 0 0 0 0 0 0 0 0 0 0 0 0 0 0 0 0 0 127 0" result="hardAlpha"/>
<feOffset dy="4"/>
<feGaussianBlur stdDeviation="2"/>
<feComposite in2="hardAlpha" operator="out"/>
<feColorMatrix type="matrix" values="0 0 0 0 0 0 0 0 0 0 0 0 0 0 0 0 0 0 0.25 0"/>
<feBlend mode="normal" in2="BackgroundImageFix" result="effect1_dropShadow_160_6"/>
<feBlend mode="normal" in="SourceGraphic" in2="effect1_dropShadow_160_6" result="shape"/>
</filter>
</defs>
</svg>
